<svg xmlns="http://www.w3.org/2000/svg" viewBox="0 0 612.19 222.1"><defs><style>.cls-1{opacity:0.14;}.cls-2,.cls-4{fill:#ed7d31;}.cls-3{font-size:15px;fill:#191919;font-family:Poppins-Regular, Poppins;}.cls-4{font-size:15px;font-family:Poppins-Bold, Poppins;font-weight:700;}.cls-5{fill:none;stroke:#cdc8c2;stroke-miterlimit:10;stroke-width:0.5px;}</style></defs><g id="Layer_2" data-name="Layer 2"><g id="Layer_1-2" data-name="Layer 1"><g class="cls-1"><path class="cls-2" d="M6.33,139l-.48-.48c-.9-1-1.84-1.72-3.25-.27-.32-1.38-.65-2.21.16-3.46s2.31-1.85,2.88-3.21A5.44,5.44,0,0,0,6.2,129c0-.4-1-.8-1.63-1a7.16,7.16,0,0,0-1.75-.12c-1-.07-1.56.45-1.73,1.46a6.53,6.53,0,0,1-.52,1.3L0,130.4a11.47,11.47,0,0,1,1.42-3c.36-.4,1.52-.09,2.32-.13.4,0,1,0,1.13-.21a1.85,1.85,0,0,0,.06-1.37,14.87,14.87,0,0,0-1.1-2c2.36.07,2.35.07,2.78-2.27.07-.39.16-.93.43-1.1,1.3-.81.71-1.63.11-2.47a4.81,4.81,0,0,1-.55-4.95c2-5.19,3.77-10.47,5.68-15.7.4-1.1,1-2.11,1.45-3.2s.56-2,.86-3c-1.4-1.37-1.31-2,.34-2.9.86.65,1.63,1.24,2.42,1.82.18.13.5.16.57.32.79,1.64,2.12,2.09,4,1.65-.3,1.15-1.05,2.16,0,3.07a1.7,1.7,0,0,0,.76.46c1.22.21,2-.3,2.28-1.74L22.8,94c.78-3.13-2.39-3.57-3.5-5.45-.53-.91-1.19-1.74-1.77-2.62a.83.83,0,0,1,0-.49c1.36-.23,1.45-2.34,3.13-2.1a1.16,1.16,0,0,0,.75-.22c.6-.41,1.09-.61,1.55.21.11.19.54.21.93.19A3.17,3.17,0,0,1,23,79.78c.39-.85.76-1.67,2-1.3.29.09.67-.19,1-.24a33,33,0,0,1,5.12-.5c.49,0,.92,1.26,1.41,2l1-1.18L31.4,76.78l1.42-2.08,3.74,1.78A6.73,6.73,0,0,1,35.5,75a3.18,3.18,0,0,1,.13-1.29l2.21,3,.46-.28a4,4,0,0,0-.26-.78c-.46-.75-.92-1.5-1.45-2.2a4.44,4.44,0,0,0-.89-.7,3.79,3.79,0,0,0-.57.78c-.49,1.31-1.36,1.5-2.29.47-.41-.45-.83-1.19-1.3-1.23a10.84,10.84,0,0,0-3.25.3c-.76.17-1.46.87-2.06-.28-.08-.15-.7,0-1.26,0a5.54,5.54,0,0,1,.75-1.58c1.6-1.68,1.7-3.71,1.71-5.86,0-1.3-.17-2.7.82-3.91.53-.66.88-1.09,1.6-.69.39-.37.88-.64,1-1,.32-.76,1.28-1.13,1-2.28-.13-.62.55-1.42.87-2.13l.37.12c-.19-.35-.52-.69-.52-1a1.78,1.78,0,0,1,.43-1.28,1.35,1.35,0,0,1,1.24.09c1.44.9,2.81,1.91,4.22,2.85a.83.83,0,0,0,.9-.11A8.86,8.86,0,0,1,37.92,55,7.56,7.56,0,0,1,37,53.67l.39-.25.92,1.14L38,52c1.37.58,2.46,1,3.57,1.49a2,2,0,0,0,.7,0c0-.2,0-.47-.09-.59a5.61,5.61,0,0,0-4.55-1.76c-.27,0-.52.51-.78.78s-.67.94-.93.91a7.17,7.17,0,0,1-1.77-.76c.33-.33.72-1,1-.92A2,2,0,0,0,37,50.41c.29-.28.93-.18,1.6-.29A2,2,0,0,1,40.93,49a3.51,3.51,0,0,0,2.26-1c2.52-2,4.89-4.28,7.47-6.25a9.91,9.91,0,0,1,3.6-1.44c1-.25,2.28-.36,1.9,1.68L59,41c-.47,2.38-2,3.61-3.83,4.8l.26,1.1A15.56,15.56,0,0,1,57,45.32c.53-.41.55-1.74,1.73-1l.84-2.74L63,45c-1.11,2,1.31,4.29.38,6.88h1.77a13.43,13.43,0,0,0-3.5,3.51,7.09,7.09,0,0,1-6.46,3.43,2.05,2.05,0,0,1-1.1-.4c-1.74-1.29-2.55-1.08-3.75,1.32l2.3-1.68.47,1.87,4.75.41-1.48,5.38,1.38.26-3,2.51c.17.06.37.22.54.19A4.37,4.37,0,0,0,58.51,65a18,18,0,0,1,.49-2.4c2.51,1.79,2.89,4.08,2.9,6.55l.42,0c.16-1.08.63-2.23.4-3.22a5.92,5.92,0,0,0-2.32-3.76,9.66,9.66,0,0,1-1.7-2.36c1.86-1.16,3.56-2.21,5.23-3.28a3.06,3.06,0,0,0,.86-.82c.9-1.29,1.73-2.64,2.67-3.91a1.86,1.86,0,0,0,0-2.58,8.1,8.1,0,0,1-1.19-1.63,4.4,4.4,0,0,1-.15-1.47,6.89,6.89,0,0,1,1.51.07c.42.1.79.5,1.21.58a3.1,3.1,0,0,0,2.57-.1c.92-.54,2.39-.31,3.57-.13.79.12,1,0,1.25-.72s.52-1.76,1.72-1.81c.23,0,.46-.48.65-.77.89-1.39,1.8-2.71,3.62-3a3.77,3.77,0,0,0,1.28-.73c2.77-1.87,5.68-3.57,8.26-5.68,2.94-2.41,6.41-2.25,9.8-2.63a7.09,7.09,0,0,1,2.33.57l.1.5-2.23,1.62.28.4c1-.06,2.18-2.44,2.87.27,1.27-.21,1.07-2.84,3.2-1.76,1.68.85,1.75,1.81.71,3.34l.51.05a3.91,3.91,0,0,0,.75-.84c.54-1.24,1.31-1.49,2.23-.45,1.27,1.42,3.08,2,4.53,3.11.75.58,1.4,1.27,2.14,1.95-2.34,1.84-2.34,1.84-3.64-.31l.5,3.32.4-.07c.49-1.39,1.86-.76,2.79-1.15.2-.08.8.43,1,.79a1.7,1.7,0,0,1-.36,2.41,12.12,12.12,0,0,0-1.34,1.43l.26.31,2.26-1.62c.78.86,1.57,1.66,2.25,2.54A1.6,1.6,0,0,1,122.8,50a8.65,8.65,0,0,0-1.47,1.93c-.92,1.57-1.55,3.37-2.71,4.72-1,1.08-2,2-2.93,3.2a2.65,2.65,0,0,1-4,.22c-1.14-1-2.52-.41-3.66.47a2.39,2.39,0,0,0-.77,2.55c1.11-.78,1.91-2,3.15-1.33l-.24,3.85a21,21,0,0,0,2.16.24c.22,0,.66-.31.66-.47-.07-1.85,1.65-2,2.64-2.76s1.95-1.62,2.95-2.4a11.83,11.83,0,0,1,1.36-.84,7.36,7.36,0,0,0,3-4.11c.73-2,1.83-2.66,3.73-2.18.92.23,1.76.57,1.49,1.55a9,9,0,0,1,.87.52c.82.67,1.62,1.39,2.46,2a.88.88,0,0,0,.77.07c1.08-.65,2-.13,2.91.35a9.22,9.22,0,0,0,2.2.56c.46.1.94.18,1.57.3A6,6,0,0,1,136,62.13a3.71,3.71,0,0,0-2,3.11,10.25,10.25,0,0,1-1.13,2.49c-.18.4-.34.81-.61,1.45a13.19,13.19,0,0,0,2.37-1.78,4.26,4.26,0,0,0,.85-2.13c.2-1.7.32-1.86,2-2a1.35,1.35,0,0,0,.9-.71c.83-1.65,1.55-3.35,2.39-5a3,3,0,0,1,2.57-1.69,24.69,24.69,0,0,0,4.25-1.23c-.13,4.15,1.21,7.46,4.28,9.63-.34.93-.54,1.6-.82,2.24a11.45,11.45,0,0,1-.86,1.67c-.49.8-1.1,1.53-1.55,2.35a1.86,1.86,0,0,1-2,1c-1.16-.08-2.34,0-3.42,0,0,1,.3,2-.08,2.45s-1.53.48-2.23.66l2.65,1.54-3.67,5.67.27.21c1.21-1.69,2.41-3.38,3.64-5a15,15,0,0,1,1.24-1.32l-1.48-.54A21.3,21.3,0,0,1,144,73a1.5,1.5,0,0,1,.71-.74,2.43,2.43,0,0,1,.94,0c1.74,0,3.22-.35,3.83-2.29a6.32,6.32,0,0,1,1-1.48l1.33,1-.72-1.83c1.12-.7,2.25-1.43,3.41-2.11a2.32,2.32,0,0,1,3.06.58,3.12,3.12,0,0,1,.71,1c1.39,3.49,4.72,4.56,7.65,6.12l1.32.71c.6-.05,1.24-.08,1.87-.14.79-.09,1.58-.25,2.38-.29a8.27,8.27,0,0,1,1.39.18c-.08.37-.2.72-.25,1.09s-.08,1-.12,1.47l.44,0a19.09,19.09,0,0,1,.95-3.49,3.29,3.29,0,0,1,3.16-1.86,1.81,1.81,0,0,1,1.53-2.44,13.52,13.52,0,0,1,8.22.78,7.45,7.45,0,0,1,4.43,5.55c.27,1.13,1.26,2.1,1.92,3.12-.12.14-.65.5-.74.94-.06.27.52.87.9,1a2.52,2.52,0,0,0,1.84,0c.71-.48,1-.89,1.37.29.1.34.93.57,1.45.65,4.24.69,7.54,3.11,10.73,5.76-.88-.47-1.81-.86-2.64-1.41-1.24-.83-1.55.17-2,.91s-.47,1.43.55,1.77a4.3,4.3,0,0,1,1.24.53c.25.2.34.61.5.93a3.19,3.19,0,0,1-1,.27c-.29,0-.57-.28-.87-.33a13.75,13.75,0,0,0-1.44-.12l.65,1.2c-.43,0-1.12-.13-1.44.15s-.46,1-.69,1.57a13.77,13.77,0,0,1-.63,1.35c-.21.39-.48.74-.75,1.15L203,96.31l-.19.34c-.62-.3-1.24-.59-1.85-.92s-1.15-.27-1.44.55c-.46,1.3-1,2.58-1.6,4.13h6.89a23.55,23.55,0,0,1,.53,3.89c0,1.17-1.1.68-1.91.78l-.2-2h-2.44l-.31,2c-1.13,0-2.25.07-3.36,0a5.84,5.84,0,0,0-4.27,1.44,4,4,0,0,1-4.88.49,4.84,4.84,0,0,0-4.55-.41,3.56,3.56,0,0,1-1,.14c-.66-2.41-.66-2.4-3.25-2a8.61,8.61,0,0,1-1.15,0v-4.39h-.54c0,1,0,1.91,0,2.86s-.36,1.34-1.53,1.4a22,22,0,0,0-5,1.16c-1.83.53-3.59,1.46-5.44,1.73a24.92,24.92,0,0,0-6.75,2.06c-.43.19-.88.34-1.58.61l.58-1.32c-.44.14-.84.16-.91.31-.55,1.29-1.79,1.11-2.82,1.44-5,1.57-10,3.15-15,4.81-2.6.88-4.62,2.78-6.88,4.25-.87.55-1.77,1-2.9,1.7-1.81-2-3.62-4.08-4.15-7-.11-.63,0-1.13.94-1a13.37,13.37,0,0,0,4,0c.88-.17,1.62-1.06,2.41-1.62l-.33-.45-.89.78c-1.42,1.21-2.81.76-3.34-1-.17-.53-.72-1-1.2-1.57,1.6-1.5-.26-3.1.07-4.77l-.53,0a11,11,0,0,0,.24,2.31c.5,1.55-.08,2.48-1.82,2.42.21.35.38.65.56.92a1.28,1.28,0,0,1-.28,2,1.94,1.94,0,0,0-.77,2.26c.15,1,.27,1.94.44,3.15-1.42-.17-2.77.74-3.65-.76l-2.67,1.36-1-.65-.21.18,3.26,4.27,1.46-3.28c2.11.41,4.21.73,5.46,2.78A1.5,1.5,0,0,1,127,124c-1.14.88-2.24,1.85-3.45,2.62-1.43.91-2.46.57-3.51-.75a9.83,9.83,0,0,0-1.72-1.4l-.35.3v6.25c-.62-.69-1.11-1.33-1.7-1.88a4.39,4.39,0,0,0-1.17-.57c.1.38.2.77.32,1.14a1.21,1.21,0,0,1,0,.91c-.6-.53-1.21-1.05-1.8-1.59a5.73,5.73,0,0,0-5.76-.77,12.4,12.4,0,0,1-2.25,1.23,13.1,13.1,0,0,1-2.82.23,3.38,3.38,0,0,1-.9,0c-.59-.13-1.46-.13-1.72-.52-.63-1-1.16-1-2-.39a1.19,1.19,0,0,1-1.06-.1c-.93-.63-1.79-1.36-2.63-2,0,1,1.42,1.31,1.89,2.33l-.76,1.43-5.07-4.9-.24.5a5.29,5.29,0,0,1-1.62-.26c-1.93-1.07-3.82-2.22-6-3.5h1.22c-.81-.92-1-.93-1.56,0-1.07,1.73-2.09,3.48-3.24,5.42l-9.52-5.9c1-2.63,2.2-3.07,4.39-1.65,1.28.84,2.58,1.67,3.88,2.49a2.67,2.67,0,0,0,.5.16l1.69-2.41L76.22,118c-1.71-1.07-1.71-1.07-.68-2.82a3.22,3.22,0,0,0-.57-.66,8.51,8.51,0,0,1-3.33-4.78A3.34,3.34,0,0,0,69.89,108c-1.79-.84-1.82-.75-1.08-2.63a4,4,0,0,0,.13-.6l-.43-.14-1.37,4.34a4.65,4.65,0,0,0,1.15-.08A1.91,1.91,0,0,1,71,110.17c.44,1.21,1,2.38,1.5,3.61-1.33.17-2.41.34-3.5.42-2,.14-2.44-.23-2.76-2-2.18,1.28-6.75.16-7.09-1.81l1.85-.13.1-.3a3.69,3.69,0,0,0-1-.46,1.76,1.76,0,0,1-1.38-2.73c.48-.92,1.13-1.75,1.61-2.67.91-1.71,1.74-3.45,1.29-5.48l-2.3-.23c0-1.43,0-1.43,2.65-1.27a3.83,3.83,0,0,0-.14-1c-.35-.88-.73-1.75-1.13-2.61a4.28,4.28,0,0,0-4.14-2,1,1,0,0,0-.59.7,1.12,1.12,0,0,0,.68.68A3.26,3.26,0,0,1,58.86,97c-.55,1.87-.55,1.9,1.41,2.12,1,.11,1.12.77.82,1.43-.52,1.17-1.21,2.26-1.87,3.45l-1.78-1.14-.25.36,1.43,1.15-2.2,5.82c1.76-.41,2.12.61,1.94,2.25-1.36-1-2.77-1.9-4.07-3-1.11-.9-1.46-1-2.86-.36a21.55,21.55,0,0,1,2.26,1.38,25.81,25.81,0,0,1,2.1,2c-1.64.13-2.84.3-4,.28-.31,0-.81-.53-.88-.89a31.07,31.07,0,0,1-.32-3.22c-.94,0-.94,0-1.22,2.47-2.74,1-3.78-1.23-5.26-2.77a1.8,1.8,0,0,0-1.77,2.14c.08,1.8-.23,2-2,2-.84,0-1.69,0-2.44,0-.4-1.57-.77-3-1.16-4.52,0-.08-.22-.11-.5-.25.16,1.48.37,2.83.43,4.19,0,.55-.24,1.6-.41,1.61-.69,0-1.52.5-2.1-.48s-1.75-1.86-1.72-3.3c0-.21-.31-.55-.53-.61a1,1,0,0,0-.86.23,2.5,2.5,0,0,0,.77,3.59c1.16.78,1.23,1.72.17,2.66-.3.28-.6.55-.92.81-.74.62-1.39,1.47-2.57.8-.2-.11-.59.11-1.17.23l1.06-.93,0-.4-2.18.16.19-1.48-1.54,1.16.87-1.79-.23-.25-1.85.63,1.18-1.6-1.75.25.58-1-1.54.46,1.17-1.45-1.78.66-.17-.23,3.55-4.08-.31-.37c-.65.47-1.28,1-1.95,1.4s-1.46.9-2.52,1.55c.23-1.87-.47-1.74-1.44-1.45.76-.64,1.57-1.25,2.28-2s1.62-1.32.47-2.66c-.62.66-1.17,1.26-1.75,1.85s-2.68,1.14-3.39.55c-.37-.31-.38-1-.66-1.91A8.71,8.71,0,0,0,14,106.6c-.13.3.47.92.77,1.37.56.85,1.22,1.65,1.71,2.55,1.22,2.26,2.38,4.57,3.56,6.86a20.66,20.66,0,0,1,1,1.93c.83,2-.11,3.28-2.3,3.1-.68,0-1.35-.16-2-.16a7.15,7.15,0,0,0-1.34.28c1.52,2,.86,4,.86,6,0,.66-2,1.54-3.17,1.51,1-1,3.15-.82,2.89-3.23-.81.35-1.49.64-2.16,1l-5.15,2.45c-1.12.54-1.11.55-.8,2l3.38-1.46.15.34L6,133.75c-1.29.63-1.48,1.11-.92,2.45.4,1,.82,1.91,1.24,2.86Z"/><path class="cls-2" d="M208.88,67.53a6.19,6.19,0,0,1,1.48.31,3.12,3.12,0,0,0,3.23-.17,4.67,4.67,0,0,1,3.19-.79,2.54,2.54,0,0,0,1.62-.53c-1.77.27-3.69-.52-5.32.83a3.25,3.25,0,0,1-2,.34,9.26,9.26,0,0,1-2.24-.49c-.34-.11-.8-.37-.88-.65-.54-1.82-1.92-2.8-3.45-3.65s-1.75-1.49-.85-2.79a3.47,3.47,0,0,0,0-4c-.55-1-.85-2.11.16-3.07A4.42,4.42,0,0,0,210.2,50c.76.36,1.52.76,2.31,1.08,1.45.59,2.55.14,3.83-.77.66-.47,2.17.12,3.23.43A19.3,19.3,0,0,1,222.5,52a24.27,24.27,0,0,1,2.95,1.54A11.61,11.61,0,0,1,228,55.73a24,24,0,0,1,2.49,3.81c.46.83-.19,1.37-.91,1.66-1.09.43-2.22.76-3.31,1.18-1.78.7-3.54,1.45-5.31,2.17a1.07,1.07,0,0,0-.54.31c2.1.66,3.29-.86,4.81-1.48,1.32-.53,2.67-1,4.31-1.62a12.17,12.17,0,0,1-.14,1.68c-.57,2.31-1.15,4.62-1.81,6.91a2,2,0,0,1-1,1c-1.12.59-2.28,1.11-3.44,1.6-2.63,1.1-5.27,2.16-7.9,3.25-1.29.53-1.63.28-1.84-1.11a5,5,0,0,0-.72-2C211.53,71.31,210.25,69.52,208.88,67.53Z"/><path class="cls-2" d="M54.42,127.1c.93.22,1.86.41,2.78.67a7.33,7.33,0,0,1,1.15.51,5.44,5.44,0,0,1-.57,1.1,14.2,14.2,0,0,1-1.42,1.26,1.2,1.2,0,0,1-1.69,0,11.5,11.5,0,0,0-2.1-1.14c-1-.49-2.15-.84-2.08-2.15l-2.2.35c-.82,1.16-.69,1.64.83,2.41.93.47,1.83,1,2.74,1.53v.59c-2.45,1.16-4.9,2.34-7.37,3.48-.78.36-1-.27-1.21-.85-.55-2-1.06-4-1.52-5.75l-4-1.09-1.9,2c.12.26.15.42.24.49,1.51,1.3,1.52,1.3.58,3-1.12,2-2.25,4-3.46,6.22-1.94.41-4.47-1.12-5.27-3.17a37.24,37.24,0,0,0-2.2-4c.26-.54.23-1.21-1-1.74s-1-1.92-.66-3.14c.69-2.19,2.58-2.89,4.18-4,2.59-1.73,5.26-3.36,7.86-5.08a9,9,0,0,1,7.08-1.39L37.9,124c.56.43,1.24,1.36,1.93,1.37s1.15-1.08,1.8-1.75l1.09,1.44a14.63,14.63,0,0,1,.76-2.72,28.86,28.86,0,0,1,2.1-3c.74,1.45,1.3,2.43,1.76,3.45.7,1.54,1.85,1.67,3.4.21-2-.47-2.15-1.93-2.16-3.63,0-.63-.9-1.26-1.4-1.9,1.09-1.57,1.88-1.72,4.54-1a16.82,16.82,0,0,0,3.38.5,2.63,2.63,0,0,1,2.83,2,5.36,5.36,0,0,0,3.93,3.93,5.91,5.91,0,0,1,2.49,2c.64.78-.26,1.28-.82,1.46-1.22.39-2.44,1.13-3.81.14a1.67,1.67,0,0,0-2.43.28c-.93,1.14-1.83.3-2.72-.19Z"/><path class="cls-2" d="M167,60.17l-.89,1.69c-.07,0-.22,0-.24,0-.82-1.66-2.29-2.17-4-2.74s-3.09-2.15-4.81-2.66a4.77,4.77,0,0,1-2.85-1.83,7.13,7.13,0,0,1-.45-.81C155,53,156,52.26,157,51.57a1.14,1.14,0,0,1,.87,0c1.8.59,3.59,1.19,5.36,1.86a1.87,1.87,0,0,1,1,.91c.83,1.94,2.7,1.9,4.21,1.94a39.3,39.3,0,0,0,6.05-.78,2.41,2.41,0,0,1,1.2.06,6.75,6.75,0,0,0,5,.49,7.78,7.78,0,0,1,3.42.27c.79.15,1.24,1.52,1,2.34a18.93,18.93,0,0,0-.39,2.27,22.55,22.55,0,0,0-3.19.3c-1.26.29-2.46-.91-3.7,0a11.9,11.9,0,0,1-1.33.7c.54,1.47.41,1.53-1.34,1.7a30.65,30.65,0,0,0-3.53.93c-.81.19-1.65.23-2.47.34l0-.37c.41-.33.83-.67,1.23-1s1.23-.66.73-1.14c-1,.5-1.94,1.27-2.8,1.23s-1.31-2.29-.87-3.08Z"/><path class="cls-2" d="M113.67,139.76l-.24-2.44-.56,0c-.1.8-.22,1.59-.3,2.38,0,.16.22.43.16.49-.39.45-.93,1.27-1.25,1.2-1.18-.25-2.61,1.44-3.52-.32-.43-.85-.5-1.82-1.88-1.38-.24.07-1.08-.72-1-.92.48-1.67-1.36-1.6-1.76-2.79-1,1.31-1.35.54-2-.23-.9-1.12-1.73-2.41-3.47-2.53-.39,0-.73-.8-1-1.57a15.05,15.05,0,0,0,2.9.23c2.33-.23,4.1,1,6,2a7,7,0,0,0,1.69.36c.78.15,1.54.36,2.32.46a11.92,11.92,0,0,0,1.58-.05c.64,0,1.28,0,2.08,0l-.39,1.57a15.58,15.58,0,0,1,2.11-1.14,1.4,1.4,0,0,1,1.17.2c.17.13.14.79,0,1.05C115.53,137.43,114.65,138.5,113.67,139.76Z"/><path class="cls-2" d="M75.15,154.9a7.44,7.44,0,0,1,1.55.5,3.17,3.17,0,0,0,3.56.07,7.65,7.65,0,0,1,2.68-.66,1,1,0,0,1,.86.49c.39,1.58.73,3.19-.18,4.73-.09.15-.2.37-.34.41-1.64.37-1.81,1.83-2.41,3-.89,1.82-2.26,2.13-4,1.06a10.28,10.28,0,0,1-1.63-1.21c-1.22-1.12-1.18-1.6-.17-2.92a7.94,7.94,0,0,0,.8-1.88l-.39-.15-1.73,1.44a12.68,12.68,0,0,1-.65-3.2,42.1,42.1,0,0,1,.92-5Z"/><path class="cls-2" d="M59.72,154.63,58.93,156l3,2.47c-4.67.2-9,.87-13.51-.8.91-.6,1.87-.88,2.17-1.48,1-2.06,3-1.78,4.69-2.29a1.58,1.58,0,0,1,1.33.25C58,155.5,58,155.53,59.72,154.63Z"/><path class="cls-2" d="M134.16,55a2.39,2.39,0,0,0-.64.48,1.52,1.52,0,0,1-2.45.24c-1.37-1.09-2.74-2.19-4-3.37a1.3,1.3,0,0,1,0-1.23,3.89,3.89,0,0,1,4.76-1c.79.43,1.52,1,2.31,1.41,1.19.63,1.4,1.42.54,2.46Z"/><path class="cls-2" d="M36.57,144.64l2.48-1.76a5.15,5.15,0,0,1-.47.81q-2.62,2.75-5.27,5.46c-.79.81-1.38.55-2-.53.5.17.79.38,1.06.35,1-.09,3.14-3.91,2.8-4.9-.27-.79-.51-1.59-.84-2.64,1.62.61,1.71-.33,1.69-1.17-.06-2.39,1.42-4.1,2.4-6l.48-.08a10,10,0,0,1,.56,1.79,30.92,30.92,0,0,1,.27,3.33,1.36,1.36,0,0,1-.35.91,6.46,6.46,0,0,1-1.24.81C36.23,142,36.23,142,36.57,144.64Z"/><path class="cls-2" d="M83.27,148.49c-1.4-.21-2.66.35-3.17-1.51-.34-1.23-1.64-1.6-2.93-1.8-2.26-.34-3-1.13-3.13-3-.07-1,.48-1.65,1.47-1.31a9.89,9.89,0,0,1,2.63,1.55,20.87,20.87,0,0,1,3.29,2.78A18.4,18.4,0,0,1,83.27,148.49Z"/><path class="cls-2" d="M113.55,132.55c-1,.36-1.8.76-2.68,1-1.07.3-2.05.19-2.43-1.21-1.46,1.08-2.32.14-3.23-.78C109.09,128.27,111.64,129.18,113.55,132.55Z"/><path class="cls-2" d="M134.16,55l.48-1L136,52.81c1.25.7,2.55,1.33,3.72,2.13a1.78,1.78,0,0,1,.44,1.5c-.12.8-.66,1.51-1.58,1.32-1.68-.33-3.33-.82-5.12-1.28Z"/><path class="cls-2" d="M8.72,153.31c-2.57-.75-5.16-1.47-7.72-2.26-1.19-.37-1.08-1.37-.79-2.38a10.72,10.72,0,0,0,.42,1.47c.11.25.42.58.62.57s.47-.34.64-.58a.68.68,0,0,0,.1-.52c-.38-2,.81-2.69,2.41-3.22.86-.29,1.86-.63,1.72-1.94.58,1.12,1.3,2.18-.27,3.11a1.57,1.57,0,0,0-.45,1.19c0,1-.44,1.29-1.34,1.09-.18,0-.39-.13-.53-.07a9.7,9.7,0,0,0-1.08.62c.27.29.49.75.82.86,1.5.49,3,.87,4.55,1.3.33.1.65.23,1,.35Z"/><path class="cls-2" d="M202.22,57.81a21.83,21.83,0,0,0-1.79,1.38c-.54.51-2.09.39-3.15-.29-.87-.55-.46-1-.07-1.67.64-1,1.19-2,1.79-3.09C200.14,55.53,202.68,55.54,202.22,57.81Z"/><path class="cls-2" d="M59.29,172.69c.68-.77,1.2-1.59,2.52-.83.61.34,1.54.09,2.33.16a7.71,7.71,0,0,1,1.22.29c-.19.36-.29.86-.59,1-.64.4-.73.75-.43,1.44.16.38,0,.92-.1,1.38-.43,0-.86-.06-1.28-.13a3,3,0,0,1-2.69-2.46C60.19,173.24,59.67,173,59.29,172.69Z"/><path class="cls-2" d="M60.65,166.25,58.83,166l-.23,1.49-4.05,1.67-.72-2.57c1.7.23,3-.13,2.67-2.26,1.27,0,2.24,1.12,3.43.45Z"/><path class="cls-2" d="M73.8,147.56c-.07-1.58.18-1.8,1.74-1.59a18.94,18.94,0,0,1,2.28.2c.47.11,1.25.62,1.22.85a1.32,1.32,0,0,1-1.57,1.28C76.28,148.1,75.11,147.82,73.8,147.56Z"/><path class="cls-2" d="M67.91,142.16a6.66,6.66,0,0,1,1.44.56,1.12,1.12,0,0,1,.45.9c0,.22-.48.4-.77.56a3.23,3.23,0,0,1-1.09.45,15.52,15.52,0,0,1-2.64.05c-.22,0-.56-.5-.56-.76s.33-.6.6-.73C66.18,142.8,67.06,142.5,67.91,142.16Z"/><path class="cls-2" d="M6.3,139.06c.33.57.71,1.14,1,1.74.63,1.32.54,1.44-.89,1.82a1.12,1.12,0,0,0-.56.42l-3-.88c-.21-.6,0-1,1.11-1.14s2.37-.41,2.42-2Z"/><path class="cls-2" d="M156.11,63.7l-3-1.75L149,57.11C150.93,57.64,155.68,62.14,156.11,63.7Z"/><path class="cls-2" d="M94.28,159.47a4,4,0,0,1-4.46-4.38C92.16,155.73,92.32,158.5,94.28,159.47Z"/><path class="cls-2" d="M118,153.81l-3.7-4.1.15-.5a3.65,3.65,0,0,1,1.25.08,21.5,21.5,0,0,1,2.09,1.31c.11.78.27,1.85.42,2.92Z"/><path class="cls-2" d="M118.65,147.36l3.34,2.82-.91,1.49a4.71,4.71,0,0,1-2.73-3.91Z"/><path class="cls-2" d="M121.49,41.35c2,1.3,3.65,4.1,3.24,5.49-1.48-.09-1.33-1.63-2-2.4A11.34,11.34,0,0,1,121.49,41.35Z"/><path class="cls-2" d="M45.22,112.73c-.82-.23-1.94.54-2.18-.8a9.74,9.74,0,0,1,.14-2.21C44.81,110,45.72,111.24,45.22,112.73Z"/><path class="cls-2" d="M72.94,142.54c.87,2.38.87,2.38-.13,3.82-.54-.7-1.38-1.32-1.44-2C71.33,143.83,72.3,143.23,72.94,142.54Z"/><path class="cls-2" d="M163.41,61l4.19,3.69c-1.6,0-4.24-2.19-4.47-3.38Z"/><path class="cls-2" d="M20.8,78.06l2.44-.53C22.57,79.65,22.41,79.7,20.8,78.06Z"/></g><g class="cls-1"><path class="cls-2" d="M496.68,146.61a1.26,1.26,0,0,1,.13.3,1.78,1.78,0,0,0,1.4,1.81,11.42,11.42,0,0,1,1.59,1,2.5,2.5,0,0,0,1,.43c.79.07,1.6,0,2.39,0,.41,0,.69-.09.76-.59s.51-.65,1-.37a2.48,2.48,0,0,0,1.73.57c.42-.06.67.32.58.75s.15.69.54.8a6,6,0,0,0,2.54.34,5.13,5.13,0,0,1,1.65.39c.15,0,.4.08.46,0a.61.61,0,0,0,0-.48c-.19-.63,0-1,.64-1.17.41-.08.53-.25.51-.65-.05-1,.62-1.63,1-2.42.14-.32.36-.6.47-.92s.05-.52-.06-.59a1,1,0,0,1-.38-1.09,7.58,7.58,0,0,1,.4-2.14c.2-.48.77-.29,1.2-.09l1.51.68a12.65,12.65,0,0,0-.33-1.74,1.77,1.77,0,0,1,.95-2.53c.43-.24.82-.55,1.26-.8a7.66,7.66,0,0,1,3.09-.81c1.31-.12,2.6-.37,3.88-.61s2.61-.55,3.91-.85c1.78-.42,3.57-.85,5.33-1.33a1.42,1.42,0,0,0,.79-.7,4.19,4.19,0,0,1,1.69-1.89c1.46-.8,2-2.3,2.86-3.6a2.25,2.25,0,0,1,.66-.77,24.57,24.57,0,0,0,5.41-4.6,3.81,3.81,0,0,0,.88-3.25c-.16-1-.09-1,.87-1,.47,0,.95,0,1.42,0a1.61,1.61,0,0,1,1.42.73,7.32,7.32,0,0,1,1.34,2.6c0,.24.54.39.92.64.55.52,1.17,1.16,1.85,1.74a1.3,1.3,0,0,0,1.62-.14,2,2,0,0,0,.54-1.06c.08-.26,0-.57,0-.83.09-.43.25-.85.4-1.35-.46-.26-.59-.77-.57-1.44a8.54,8.54,0,0,0-.35-1.48,1,1,0,0,1,.16-.82,4.38,4.38,0,0,1,2.76-.95c.63,0,1,.61.86,1.23a3.14,3.14,0,0,0,2.64,3.78c.42.06.49-.22.4-.53s-.24-.46-.32-.71a18.69,18.69,0,0,0-.6-2c-.32-.7-.8-1.32-1.19-2s-.1-1,.5-1.07a10.83,10.83,0,0,1,1.5.07,3.27,3.27,0,0,1,.44,0,25.7,25.7,0,0,1,2.78.52c.56.17.63,1.31.19,1.75a4,4,0,0,0-.69,3.38,2.09,2.09,0,0,0,.68.74c.4.29.62.58.39,1.08a1,1,0,0,0,.32,1.44c.57.4.45.91.23,1.37s-.67,1.11-.25,1.79a.42.42,0,0,1,0,.36,3.17,3.17,0,0,0-.08,2.49,1.7,1.7,0,0,1-.43,2,2.46,2.46,0,0,0-.42,2.31,1.13,1.13,0,0,1-.08.81,2.39,2.39,0,0,1-2.39,1.35,2.84,2.84,0,0,0-2.83,2.91c0,.66.58.76,1,1a.87.87,0,0,1,.56,1,.78.78,0,0,1-.62.79,10,10,0,0,0-1.06.58c-.35.19-.71.35-1.06.54s-.54.24-.6.44c-.21.58-.65.63-1.14.65a.71.71,0,0,0-.66,1.06c.09.2.13.45.28.57.78.65.19,1.42.21,2.12,0,.15-.28.38-.47.44-.77.23-1,.77-1.08,1.51a4.35,4.35,0,0,1-.68,1.34,14.42,14.42,0,0,0-.84,1.48c-.25.59-.7.37-1.1.36a.57.57,0,0,1-.36-.13c-.93-.77-1.88-.38-2.86-.11a3.71,3.71,0,0,1-1.55.14,3,3,0,0,0-3,.94,9.5,9.5,0,0,1-2,1.45.64.64,0,0,1-.61-.08,3.19,3.19,0,0,0-2.32-.59,5,5,0,0,1-1.39-.32c-.49-.13-1-.29-1.46-.44-.24-.08-.48-.19-.72-.26a6.3,6.3,0,0,0-1.26-.32c-1.16-.08-1.28-.26-.74-1.24a1.1,1.1,0,0,0,.06-.28c-.54,0-1,.1-1.53.11-1.4,0-2.8,0-4.2,0a1.14,1.14,0,0,0-1.06.4c-.2.23-.68.2-1,.29a4.92,4.92,0,0,0-1.1.27c-.29.14-.53.4-.21.79a.49.49,0,0,1,0,.44,15.16,15.16,0,0,0-.8,1.48.78.78,0,0,1-.83.63,2.71,2.71,0,0,0-2.51,1.27,1.13,1.13,0,0,1-.93.35,5.9,5.9,0,0,0-2.79.21,3.3,3.3,0,0,1-2.42-.13,3.73,3.73,0,0,0-3.4-.22,5.43,5.43,0,0,1-1.67.19,1.29,1.29,0,0,0-1.11.65,1.7,1.7,0,0,1-.79.54,15.19,15.19,0,0,1-1.86.54,2.26,2.26,0,0,1-1.09.06,2.86,2.86,0,0,1-1.9-1.22c-.09-.16-.42-.19-.62-.3-.36-.21-.92-.36-1-.66-.39-1.14-1.37-1.41-2.31-1.74-.39-.14-.61-.29-.68-.73A1.92,1.92,0,0,0,499,154a1.21,1.21,0,0,1-.72-.28,19.81,19.81,0,0,1-1.76-1.91,2,2,0,0,1-.34-1.13,1.12,1.12,0,0,0-.53-1c-1.08-.76-1.1-1.45-.07-2.25Z"/><path class="cls-2" d="M420.67,85.58a4.61,4.61,0,0,0,2.51,2,.63.63,0,0,0,.56-.16,2.32,2.32,0,0,0,.31-1c0-.57.23-.64.7-.62a3.37,3.37,0,0,0,1.09-.14c1.34-.34,1.55-.3,2.35.81a2.24,2.24,0,0,0,2.07,1.08c.5,0,1,0,1.5,0,.86,0,1.1-.26,1.43-1.08.08-.19.52-.34.79-.33a6.72,6.72,0,0,1,1.46.28,3.93,3.93,0,0,0,3.67-.58.67.67,0,0,1,1,0,3.42,3.42,0,0,0,2.18.64c.81,0,1.06.23,1,1s-.1,1.67-.14,2.5a1.22,1.22,0,0,0,1.27,1.28c.32,0,.64-.06,1-.09a.83.83,0,0,1,.89.69c0,.17-.19.44-.34.63a8,8,0,0,0-1.65,3.25,9.56,9.56,0,0,0-.19,1.41,1.62,1.62,0,0,0,2.16,1.59,9.17,9.17,0,0,1,1-.28,1.58,1.58,0,0,1,1.45.31,3.73,3.73,0,0,0,1.13.61c1,.41,1.37,1.39,2,2.12s1,.77,1.39.34a1.12,1.12,0,0,0,.28-.59c.08-1.2.12-2.41.2-3.61,0-.68.29-.91,1-.92s1.13,0,1.68,0c0,.06.07.12.05.13-.63.75-.33,1.53-.08,2.31a2,2,0,0,1-.6,2.5.6.6,0,0,0-.21.32,35.27,35.27,0,0,0-.54,3.5,2.59,2.59,0,0,0,.57,1.44c.56.82,1.24,1.55,1.84,2.35a1,1,0,0,1,.17.76,11.48,11.48,0,0,0-.48,4.73c0,1.4.06,2.81-.06,4.2a6.37,6.37,0,0,0,.91,4,6.2,6.2,0,0,0,1.24,1.21,4.92,4.92,0,0,0,.8.66c.64.35.55.78.21,1.27-.12.18-.18.4-.29.58a3.2,3.2,0,0,0-.75,2.33,16.9,16.9,0,0,1-1.58-1.13,4.12,4.12,0,0,0-4.84-.63c-.71.3-1.46.53-2.2.78a.47.47,0,0,1-.31,0,25.11,25.11,0,0,1-3.18-1.52,13.85,13.85,0,0,1-2-1.93,6.23,6.23,0,0,0-.87-.76c-1.87-1.2-3.74-2.41-5.63-3.57A35.91,35.91,0,0,1,434.1,117a6.45,6.45,0,0,0-3.59-1.11,16.44,16.44,0,0,1-2.74-.38c-1-.32-1.86-.94-2.82-1.35a4.43,4.43,0,0,0-1.49-.29,2.62,2.62,0,0,1-2.58-2.46,3.6,3.6,0,0,1,.31-2.63c.14-.2-.05-.71-.22-1-.59-1.06-1-2.26-2.31-2.75a1.51,1.51,0,0,0-.61-.2c-1,.13-1.14-.65-1.36-1.3a10.87,10.87,0,0,1-.54-4.77,1.65,1.65,0,0,0-.67-1.38,7.73,7.73,0,0,1-1.24-1.7c-.46-.83-.82-1.71-1.23-2.57,0,0-.07-.09-.06-.11.28-1-.49-1-1.06-1.2-.37-.13-.62-.32-.38-.77a1.63,1.63,0,0,0,.07-.45c.1-.37.11-.84.36-1.06s.66.18,1,.15a6.8,6.8,0,0,0,1.14-.35c.21-.06.5-.2.64-.11,1.38.88,2.68.4,3.9-.29a9.79,9.79,0,0,0,1.81-1.47,1.27,1.27,0,0,0,.24-.75A9.37,9.37,0,0,0,420.67,85.58Z"/><path class="cls-2" d="M388.5,79.1l1.87-.33c.28,0,.55-.14.82-.16a5.46,5.46,0,0,1,1.07,0c.56.08,1.12.27,1.69.31a1.16,1.16,0,0,0,1.26-1.17,2.68,2.68,0,0,0,0-.91,5.69,5.69,0,0,0-.49.61,1.56,1.56,0,0,1-2.26.38,1,1,0,0,1-.19-.69c0-1.36,0-2.71,0-4.07a11.37,11.37,0,0,1,.07-1.94c.32-1.67-.14-1.53-1.55-2a2,2,0,0,0-2,.12.27.27,0,0,1-.18,0,3,3,0,0,1-1.27-2.17,8.39,8.39,0,0,0,.55-3.81,11.69,11.69,0,0,0-1.5-4.7c-.35-.59-.73-1.17-1-1.78a.69.69,0,0,1,.07-.61c1.56-1.76,3.14-3.51,4.71-5.26,0,0,.07,0,.09-.09,1.36-1.59,1.05-1,2.73-.54a16.12,16.12,0,0,1,1.63.63,1.15,1.15,0,0,0,1.41-.32c.7-.73,1-.68,1.71,0,.4.37.93.61,1.36,1a1.25,1.25,0,0,1,.4.67c.15.74.25,1.49.36,2.24.06.42.29.62.71.53s1-.25,1.51-.33a1.48,1.48,0,0,1,.94,0,2.12,2.12,0,0,0,1.26.35,1.37,1.37,0,0,1,1.35,2c-.22.52-.51.94.09,1.42.12.09.05.54,0,.79a1.82,1.82,0,0,0,.18,2c.3.38.33.79-.23,1s-1,.54-1.57.78a1.06,1.06,0,0,0-.68,1,7,7,0,0,1-.5,1.84c-.38.87-.88,1.68-1.3,2.53a.73.73,0,0,0,0,.58,1.57,1.57,0,0,1-.21,1.62,12.5,12.5,0,0,1-5.05,4.32,1.7,1.7,0,0,0-.87,1.36c.57-.34,1-.6,1.49-.9A27.44,27.44,0,0,0,400,73.25c.82-.72,1.4-1.69,2.15-2.49a1.62,1.62,0,0,0,.23-2.1.49.49,0,0,1,0-.41c.49-.93,1-1.85,1.54-2.84l1.22.92a1.43,1.43,0,0,0,2.44-.87,1.86,1.86,0,0,1,2-1.74,4,4,0,0,0,1.92-.87,1.33,1.33,0,0,1,.82-.28,2.44,2.44,0,0,0,1.79-.36,2.54,2.54,0,0,1,3.59,1.13c.1.21.21.42.38.78a2.78,2.78,0,0,0-.3.15c-.48.32-.71.54-.34,1.27a7.32,7.32,0,0,1,.36,2.72c0,.75,0,1.51,0,2.27,0,0,.05.07.09.08,1.17.5,1.39,1,.88,2.18a.72.72,0,0,1-.53.33c-.68,0-1.36,0-2,0s-1.1.59-1.42,1.16c-.08.15-.11.4-.22.44-1.22.47-1.12,1.63-1.35,2.58a12.46,12.46,0,0,0-.1,1.73.91.91,0,0,1-.24.49,2.19,2.19,0,0,0-.72,1.54c0,.18,0,.45.1.54.45.39.25.77,0,1.14-.57.93-1.13,1.86-1.74,2.77a2.59,2.59,0,0,0,.29,3.22.86.86,0,0,1,.16.63c-.09.46-.25.91-.38,1.37a1.17,1.17,0,0,0,1,1.66c.52,0,.66.26.8.71a9.45,9.45,0,0,0,2.24,4.27,2.53,2.53,0,0,1,.72,2.34,17.5,17.5,0,0,0,.76,4.43c.08.39.34.83-.14,1.11s-1,1-1.88.49-1.76-.92-2.65-1.37a1.08,1.08,0,0,0-1.6.88c-.07.6-.26.71-.85.57-1-.23-2-.42-3-.64a1.61,1.61,0,0,1-.77-.31,1.67,1.67,0,0,0-1.49-.39c-.52,0-.93,0-1.18-.62a1.45,1.45,0,0,0-1.61-.84c-.87.1-1.72.32-2.59.46a2.53,2.53,0,0,1-.77-.08c-1.31-.26-1.38-1.34-1.54-2.35-.09-.59,0-1.08.68-1.24a.5.5,0,0,0,.25-.43c-.1-.42-.17-1-.46-1.18a6.44,6.44,0,0,0-1.79-.63c-.7-.19-1-.81-1.34-1.32,0,0,0-.09,0-.12-.93-1.2-.5-2.42-.1-3.66a4.11,4.11,0,0,0-.26-3.85c-.16-.22,0-.68,0-1,.43-1.44-.41-4.07-2.21-4.72-1.36-.49-1.81-1.76-2.15-3C388.65,79.66,388.59,79.41,388.5,79.1Z"/><path class="cls-2" d="M595.76,122.81l-.07.47a4.75,4.75,0,0,1-.51,0c-.75,0-1.5-.1-2.24-.19-.15,0-.39-.25-.37-.33a.94.94,0,0,1,.36-.44c.15-.12.33-.21.49-.32-.15-.18-.26-.46-.44-.51s-.6,0-.66.18a3.05,3.05,0,0,0-.26,1.23c0,.5-.2.66-.64.66a2.87,2.87,0,0,1-2.14-.61,4,4,0,0,0-2.19-.82c-1.29-.13-2.59,0-3.89,0s-2.48-.16-3.72-.19a1.43,1.43,0,0,0-.9.4c-.37.39-.68.42-1,0a1.66,1.66,0,0,0-1.49-.54,4.06,4.06,0,0,0-2.49.69c-.21.18-.75,0-1.12-.06s-.48-.3-.74-.37a.51.51,0,0,0-.46.18,2.18,2.18,0,0,1-2.13,1.36c-.63,0-.81-.2-.51-.76s.22-.86-.23-1.13c-1.18-.71-.93-1.86-.89-2.93a1.37,1.37,0,0,1,.57-.85,1.32,1.32,0,0,0,.44-1.51c-.09-.51-.14-1.09-.87-1.18-.57-.08-1.13-.24-1.82-.39l.41-.52a5.84,5.84,0,0,0,.68-1,.67.67,0,0,0-.42-.89c-.23-.12-.44-.27-.65-.4-1.25-.8-1.27-.84-.28-2.3a2.4,2.4,0,0,1,2.39-1.17,17,17,0,0,0,2.14,0,1.12,1.12,0,0,0,1-.84,5.65,5.65,0,0,0,.24-.8,1.25,1.25,0,0,1,.88-1,1.76,1.76,0,0,0,.76-.81,12.92,12.92,0,0,0,.58-1.5c0-.12.16-.27.13-.36-.31-.9.52-1.29.86-1.88a.89.89,0,0,1,.72-.27c.47,0,.73-.11.79-.55a1.83,1.83,0,0,1,1.12-1.32c.68-.38,1.38-.74,1.46-1.67a.86.86,0,0,1,.39-.5A3.1,3.1,0,0,0,580.22,95a2.6,2.6,0,0,1,1.49-2,.89.89,0,0,1,1.13.85c0,.43.14.86.1,1.28a7.13,7.13,0,0,1-.32,1.09,5.77,5.77,0,0,0-.1.71c.22,0,.43-.06.64-.11,1-.2,1.13-1.15,1.64-1.76a.73.73,0,0,0,.05-.49c-.13-1,.22-1.49,1.24-1.6a3.93,3.93,0,0,1,.84,0,.89.89,0,0,1,.82,1,1.6,1.6,0,0,0,.29,1.38c.14.16.1.49.13.74.06.42.21.75.71.74a.54.54,0,0,1,.31.09c.55.43,1.08.7,1.62,0a.79.79,0,0,1,.68.17,3,3,0,0,0,1.65,1.29.75.75,0,0,1,.53.84c0,.32,0,.65,0,1,0,.61,0,1.14-.83,1.23-.49.05-.53.42-.28.83a1.65,1.65,0,0,1,0,1.92.64.64,0,0,0,.09.48c.34,0,.92.09,1-.07.25-.5.7-.44,1.07-.61s.88-.52,1.34-.74c.16-.08.45-.14.56-.06a3.32,3.32,0,0,1,1.28,2.09c.07.46-.34.77-1,.87a4.24,4.24,0,0,0-.88.32,3.7,3.7,0,0,0,.93.29,1.18,1.18,0,0,0,1.36-.84.93.93,0,0,1,.73-.42,9.34,9.34,0,0,1,5.93,2.33,12,12,0,0,0,2.89,1.69,5,5,0,0,0,2,.12,1.92,1.92,0,0,1,1.9.8,2.14,2.14,0,0,1-1.16,3.22,31.35,31.35,0,0,0-4.81,1.43c-1.29.59-2.53.09-3.77.3-.1,0-.23-.1-.34-.17-.28-.16-.62-.53-.82-.46a10.49,10.49,0,0,0-1.85,1c-.06,0,0,.34,0,.46a7.43,7.43,0,0,0,1.1,1.58,7.29,7.29,0,0,0,1.43.69,10.11,10.11,0,0,1,1.11.73c.16.11.29.33.45.35.64.08,1.07.38,1.11,1,0,.42-.83,1.12-1.38,1.2l-2.56.41c-.91.16-1.82.35-2.73.48C597.06,122.79,596.46,122.78,595.76,122.81Z"/><path class="cls-2" d="M461.39,126.1a4.74,4.74,0,0,1,3,1.33c.41.47,1,.76,1.12,1.46a2.69,2.69,0,0,1,0,1.13.9.9,0,0,0,.37,1.12,8.86,8.86,0,0,1,2.69,4.17,4.76,4.76,0,0,0,1.11,1.56,9.44,9.44,0,0,1,1.48,2.55c.58,1.24,1.17,2.48,1.79,3.71.77,1.51,1.59,3,2.36,4.5a4,4,0,0,1-.42,4.22c-.59.89-2.44,1-3.34.37a3.37,3.37,0,0,1-1.37-1.57c-.19-.48-.52-.88,0-1.39.11-.11-.06-.72-.26-.86a.56.56,0,0,0-.86.38c-.12.41-.22.83-.32,1.25-.15.64-.36.82-1,.54a4.91,4.91,0,0,0-3.9-.15,22.34,22.34,0,0,0-3.34,1.78c-.59.35-1.11.83-1.68,1.21-1,.66-1.7.49-2.21-.58a12.33,12.33,0,0,1-1-2.57,2.55,2.55,0,0,0-1.89-1.88c-1.3-.49-2.61-1-3.88-1.52a20.07,20.07,0,0,1-2-1.12,2.49,2.49,0,0,0-1.81-.52,1.42,1.42,0,0,1-1.35-.46,21.72,21.72,0,0,0-1.73-1.59,1.38,1.38,0,0,0-1-.4c-1.57.31-2.48-.53-3.28-1.69a5.21,5.21,0,0,0-.88-.8,1.73,1.73,0,0,0-.24-.1c-1.36-.71-1.5-1.29-.57-2.49a4.1,4.1,0,0,1,.35-.47,1.39,1.39,0,0,0,.31-1.8,1.75,1.75,0,0,1,0-1.13c.26-.91.59-1.8.92-2.69.13-.35.14-.63-.21-.84s-.39-.48-.31-1c.27-1.64,1.15-3,1.63-4.59a9.56,9.56,0,0,1,1.11-2,.45.45,0,0,1,.38-.18,5.74,5.74,0,0,1,1.65.65,15.87,15.87,0,0,1,2.35,2.13c1.14,1.24,2.68,1.76,4.08,2.53,1.15.63,2,0,3-.33a7.55,7.55,0,0,1,2.1-.6,4.66,4.66,0,0,1,2,.65c1,.53,2,1.17,3,1.77.15.09.3.27.44.27a8.19,8.19,0,0,0,1.08-.2,2.27,2.27,0,0,0-.35-.77,2,2,0,0,1,.29-2.9A2,2,0,0,1,461.39,126.1Z"/><path class="cls-2" d="M423.28,86.82a7.32,7.32,0,0,1-.62-.47c-.43-.39-.84-.81-1.28-1.2-.66-.59-1.22-.42-1.47.45a3.91,3.91,0,0,0-.22.88c-.06.77-.6,1.14-1.16,1.52-.16.11-.35.19-.49.31a2,2,0,0,1-2.72.17.82.82,0,0,0-1.07,0,1.47,1.47,0,0,1-1.8.09,3.15,3.15,0,0,0-.7-.32,1.3,1.3,0,0,1-.7-2.23c.45-.59.79-1.26,1.19-1.88a5.21,5.21,0,0,1,.71-.9,1.27,1.27,0,0,0,.27-1.63,1.08,1.08,0,0,1-.12-.72c.42-1.67.85-3.34,1.32-5a4,4,0,0,1,3.06-2.27h.84c.59,0,1-.17,1.09-.84a8.6,8.6,0,0,1,.4-1c.25-.83.07-1.25-.71-1.54a.67.67,0,0,1-.5-.76c0-1.16,0-2.32,0-3.48a1.32,1.32,0,0,0-.33-.67c-.21-.27-.18-.39.11-.61.56-.4,1.07-.73,1.73-.2a.46.46,0,0,0,.31.05A2.4,2.4,0,0,0,422.62,62c-.24-1.26.4-1.82,1.22-2.41a12.81,12.81,0,0,1,1.35-1c.59-.32.59-.81.63-1.35a1.71,1.71,0,0,1,.3-.76,1.89,1.89,0,0,1,.53-.56,1.43,1.43,0,0,1,.78-.3c1,.1,2.05.32,3.08.37a2.63,2.63,0,0,1,1.57.81,14,14,0,0,1,2.29,2,7.61,7.61,0,0,1,1.4,3.16c.07.38.53.69.82,1a6,6,0,0,0,.48.42,10.42,10.42,0,0,0-1.32.83,8.73,8.73,0,0,0-2.11,2.14,3.54,3.54,0,0,0,.08,2.35,1.38,1.38,0,0,1,0,1.19,1.47,1.47,0,0,0-.12,1.42,7.66,7.66,0,0,1,.56,3.72,2.22,2.22,0,0,0,1,2.2,2.42,2.42,0,0,1,1.13,2.62,2.67,2.67,0,0,0,1.57,2.78l.49.31a1.89,1.89,0,0,1,.9,1.75,2,2,0,0,1-1.77,1.06,8.12,8.12,0,0,1-2.7-.37c-1.1-.44-1.88,0-2.54,1a.69.69,0,0,1-.46.26c-.56.06-1.13,0-1.68.13a1.24,1.24,0,0,1-1.21-.59c-.37-.45-.7-.94-1.1-1.35a.8.8,0,0,0-.66-.2,3.61,3.61,0,0,1-2.74.18c-.41-.2-1,.45-1.08,1C423.27,86.18,423.28,86.39,423.28,86.82Z"/><path class="cls-2" d="M452.68,101.33c-.37-.46-.72-.94-1.13-1.37a6.43,6.43,0,0,0-1.08-.87c-.46-.31-1-.52-1.44-.84a3.06,3.06,0,0,0-2.5-.3c-1.42.3-1.51.19-1.61-1.24a4.51,4.51,0,0,1,1.93-4c.39-.3.38-.51.22-1-.39-1.1-1.22-1.13-2.13-1.06-.57,0-.79-.16-.77-.72,0-.84,0-1.68,0-2.52a1.5,1.5,0,0,0-1.34-1.5c-.32,0-.65,0-1,0a1.89,1.89,0,0,1-1.8-1.43,3.81,3.81,0,0,0-2.06-2.8,1.67,1.67,0,0,1-.94-1.43,13.58,13.58,0,0,0-.31-1.91,2,2,0,0,0-.64-1,3.41,3.41,0,0,1-1.23-2.9,8.71,8.71,0,0,0-.54-3.23c-.15-.36.15-.89.2-1.35a2.44,2.44,0,0,0,0-1.08,2.27,2.27,0,0,1,.46-2.94,19.53,19.53,0,0,1,1.55-1.47,1.31,1.31,0,0,1,2,0,10,10,0,0,1,1.57,1.33A13.12,13.12,0,0,0,444,68.35a15.9,15.9,0,0,1,5.68,4.1,24.48,24.48,0,0,1,2.18,3.36,61,61,0,0,0,4.29,6.75,5.81,5.81,0,0,1,1,3.17c.13,1.69.27,3.38.38,5.08a23.32,23.32,0,0,1,.07,3.34,5.76,5.76,0,0,1-.8,1.89c-.07.14-.37.22-.56.23a12.36,12.36,0,0,1-1.36,0,1.6,1.6,0,0,0-1.89,1.8c0,.93,0,1.86,0,2.79a3.07,3.07,0,0,1-.07.42Z"/><path class="cls-2" d="M423.79,114.42a28.52,28.52,0,0,1-.13,3.29,15,15,0,0,1-.89,3.23c-.12.31-.75.46-1.18.59-.62.19-1.25.31-1.88.44-.44.09-.59.33-.58.78a12.23,12.23,0,0,1-.05,2.57,6.54,6.54,0,0,1-.87,2.2,1.27,1.27,0,0,1-1.12.38c-1.09-.25-2.14-.64-3.21-1a1.14,1.14,0,0,1-.41-.29c-.77-.77-1.52-1.57-2.32-2.31-.22-.2-.6-.22-.89-.34a12.08,12.08,0,0,1-1.47-.64,1.2,1.2,0,0,1,.07-1.91,2,2,0,0,0,1-2.71c-.25-.75-.44-1.52-.62-2.3a6.48,6.48,0,0,0-2.2-3.26c-1.08-1-2.13-2.06-3.19-3.1a.85.85,0,0,1-.28-.5c0-1-.69-1.49-1.35-2-1.11-.82-2.27-1.57-3.38-2.39a1.26,1.26,0,0,1-.47-.77c0-.16.34-.44.57-.51,1.09-.36,2.13-.6,3.06.47a2.64,2.64,0,0,0,2.13.93,7.79,7.79,0,0,1,1.89.56c1.16.33,2.32.65,3.5.92.6.13.93-.22,1-1,.15-1.06.5-1.17,1.42-.55a22.33,22.33,0,0,0,2.19,1.23c.88.43,1.53,0,2.13-.62a1.83,1.83,0,0,1,2.78.11,6.48,6.48,0,0,1,1.13,1.55,2.27,2.27,0,0,1,.05,1.39c-.16.6-.57,1.14-.05,1.76a.51.51,0,0,1,0,.48c-.51.65,0,1.06.31,1.52,0,0,.06.06.08.1A2.93,2.93,0,0,0,423.79,114.42Zm-4.82,0a5.48,5.48,0,0,1,.1.56,7.07,7.07,0,0,1,.1,1.52c0,.24-.41.63-.57.61a1,1,0,0,1-.69-.6,7.44,7.44,0,0,1-.26-1.7c0-.54.15-.94.81-.91.12,0,.25-.14.38-.21a1.89,1.89,0,0,0-.34-.4c-.07,0-.21,0-.32,0a1.52,1.52,0,0,0-1.14,1.56,9.36,9.36,0,0,0,.68,2.14c.37.8,1.55,1,1.91.32A2.43,2.43,0,0,0,419,114.41Zm-.79,5.38a1.38,1.38,0,0,0,1.76,1.31,4.44,4.44,0,0,0,.66-.25c1-.44,1-.57.33-1.42-.07-.09-.11-.19-.18-.28a1.47,1.47,0,0,0-2-.42A3.29,3.29,0,0,0,418.18,119.79Z"/><path class="cls-2" d="M425.09,115a6.68,6.68,0,0,1,1.22.52,5.79,5.79,0,0,0,2.89.86,10.26,10.26,0,0,1,6.64,2.94,24.66,24.66,0,0,0,3.58,2.37c1.1.77,1.13.74.24,1.71s-.85,2-1.27,3.06c-.13.32-.22.65-.34,1-.28.77-.59,1.52-.84,2.29-.11.36-.23.49-.58.32-.6-.28-1.19-.59-1.81-.83a1.78,1.78,0,0,0-.91-.13,9.4,9.4,0,0,1-2.81.15,7.67,7.67,0,0,0-6.73,1.9,3.44,3.44,0,0,0-.47.54,1.16,1.16,0,0,1-1.06.48c-.81,0-1.36-.12-1.53-1.11a8,8,0,0,0-.9-2.19,1.26,1.26,0,0,0-.72-.45c-.84-.29-.9-.38-.6-1.2.17-.46.37-.92.55-1.39a4.65,4.65,0,0,0,.17-2.61c-.09-.49.05-.74.61-.81s1.34-.32,2-.46.79-.62,1-1.11a4.34,4.34,0,0,1,.2-.75,5.85,5.85,0,0,0,.55-3.7C424,115.39,424.28,115.05,425.09,115Z"/><path class="cls-2" d="M437.81,131.34c-.12.42-.2.73-.29,1-.25.78-.53,1.55-.72,2.34a1.54,1.54,0,0,0,.16.93,1,1,0,0,1-.22,1.22,4.66,4.66,0,0,0-.71,1c-.22.46-.5.49-.94.33-1.93-.73-3.88-1.39-5.8-2.14A14.24,14.24,0,0,1,427.4,135c-.55-.33-1.08-.72-1.66-1a2.28,2.28,0,0,1-1.27-1.61c-.08-.4.37-1.07.76-1.38a5.92,5.92,0,0,1,2.93-1.24,14.67,14.67,0,0,1,3.86.13,3.19,3.19,0,0,0,1.22-.12,2.68,2.68,0,0,1,1.94.25c.73.35,1.48.67,2.22,1A1.75,1.75,0,0,1,437.81,131.34Z"/><path class="cls-2" d="M390.32,49.7a1.14,1.14,0,0,1-.12.36c-1.29,1.47-2.58,2.95-3.89,4.4-.46.51-1,.95-1.44,1.47s-.68.36-1.1.07c.35-.78-.22-1.31-.6-1.87a4.34,4.34,0,0,1-.42-2.37c0-.1.12-.24.22-.3.65-.33.65-1,.73-1.56.1-.83.13-1.67.2-2.51s.39-1.16,1.3-1.16c.6,0,1.21,0,1.81,0a1.21,1.21,0,0,1,1.26,1c.12.52.24,1,.39,1.55s.61.68,1.08.82C389.91,49.65,390.1,49.66,390.32,49.7Z"/><path class="cls-2" d="M388.36,78.26c.8-.48.77-1.27,1-2a2.44,2.44,0,0,0-.43-2.19,2.4,2.4,0,0,1-.44-1.63c0-.6,0-1.2,0-1.8a.87.87,0,0,1,.78-1,5.37,5.37,0,0,1,1.83.21c.64.19.85.69.8,1.42-.13,1.84-.15,3.69-.19,5.54,0,.66-.21,1.13-.91,1.25l-2.28.38Z"/><path class="cls-2" d="M378.89,53.24a11.2,11.2,0,0,0-.6,1.26c-.21.61-.71.49-1.17.57-.63.11-1.26.27-1.89.44s-1,.05-1.17-.58-.46-1.39-.66-2.1.44-.73.81-.87a9.32,9.32,0,0,1,2-.54,2.19,2.19,0,0,1,1.22.14A2.63,2.63,0,0,1,378.89,53.24Z"/><path class="cls-2" d="M384.38,71.15a7.55,7.55,0,0,1,2.18.33c.4.19.55.9.79,1.38.06.13,0,.31.07.44.54,1.29.12,1.24-.81,1.7a5.44,5.44,0,0,1-1.35.43c-.18,0-.53-.11-.56-.24A7.71,7.71,0,0,1,384.38,71.15Z"/><path class="cls-2" d="M585.23,90.77a1.91,1.91,0,0,1,2.38-1.59c.13,0,.29.18.3.29,0,.36,0,.73,0,1.09,0,.58-.48.45-.76.61a5.77,5.77,0,0,1-1.09.53c-.67.23-.84.09-.85-.61Z"/><path class="cls-2" d="M564.32,111a6.84,6.84,0,0,1-1.33,1c-.11,0-.6-.39-.66-.67-.11-.44.62-1.21,1-1.09S563.87,110.67,564.32,111Z"/><path class="cls-2" d="M419,114.41a2.43,2.43,0,0,1,.66,2.89c-.36.63-1.54.48-1.91-.32a9.36,9.36,0,0,1-.68-2.14,1.52,1.52,0,0,1,1.14-1.56c.11,0,.25,0,.32,0a1.89,1.89,0,0,1,.34.4c-.13.07-.26.22-.38.21-.66,0-.84.37-.81.91a7.44,7.44,0,0,0,.26,1.7,1,1,0,0,0,.69.6c.16,0,.54-.37.57-.61a7.07,7.07,0,0,0-.1-1.52A5.48,5.48,0,0,0,419,114.41Z"/><path class="cls-2" d="M418.18,119.79a3.29,3.29,0,0,1,.53-1.06,1.47,1.47,0,0,1,2,.42c.07.09.11.19.18.28.67.85.65,1-.33,1.42a4.44,4.44,0,0,1-.66.25A1.38,1.38,0,0,1,418.18,119.79Zm1.5-.64c-.5,0-1,0-.91.8a.7.7,0,0,0,.85.65c.39,0,1-.08,1-.67C420.68,119.59,420.06,119.13,419.68,119.15Z"/><path class="cls-2" d="M419.68,119.15c.38,0,1,.44,1,.78-.07.59-.64.63-1,.67a.7.7,0,0,1-.85-.65C418.67,119.19,419.18,119.2,419.68,119.15Z"/></g><text class="cls-3" transform="translate(81.89 117.4)">Automation solution for feeding raw <tspan x="-9.66" y="16.4">material to the production line across a </tspan><tspan x="-7.29" y="32.8">24x7 manufacturing plant. The solution </tspan><tspan x="-6.69" y="49.2">is built around MAG1000 AMR to carry a </tspan><tspan x="-8.37" y="65.6">roll of 120-inch diameter autonomously </tspan><tspan x="-6.04" y="82">with multiple safety integrations in the </tspan><tspan x="62.29" y="98.4">environment.</tspan></text><path class="cls-2" d="M96.68,73.19l-2-3.47h-.51v3.47H92V64h3.8a4.15,4.15,0,0,1,1.85.38,2.64,2.64,0,0,1,1.13,1,3,3,0,0,1,.38,1.5,2.68,2.68,0,0,1-.56,1.71,2.79,2.79,0,0,1-1.6,1l2.18,3.61Zm-2.49-5h1.38a1.41,1.41,0,0,0,1-.29,1.13,1.13,0,0,0,.31-.87,1.14,1.14,0,0,0-.31-.85,1.35,1.35,0,0,0-1-.32H94.19Z"/><path class="cls-2" d="M110.57,64.07v9.12h-2.23v-5.7l-2,5.7h-1.93l-2-5.72v5.72h-2.23V64.07H103l2.48,6.35,2.43-6.35Z"/><path class="cls-2" d="M125,64.07v9.12h-2.23v-5.7l-2,5.7h-1.93l-2-5.72v5.72H114.7V64.07h2.72l2.48,6.35,2.43-6.35Z"/><path class="cls-2" d="M131.89,66.3a3.26,3.26,0,0,1,1.34,1.29,4.23,4.23,0,0,1,0,4,3.23,3.23,0,0,1-1.34,1.3,4.45,4.45,0,0,1-3.86,0,3.31,3.31,0,0,1-1.35-1.3,4.23,4.23,0,0,1,0-4A3.35,3.35,0,0,1,128,66.3a4.36,4.36,0,0,1,3.86,0Zm-3,1.93a1.89,1.89,0,0,0-.43,1.34,1.83,1.83,0,0,0,.43,1.32,1.41,1.41,0,0,0,1.07.46,1.39,1.39,0,0,0,1.07-.46,1.83,1.83,0,0,0,.43-1.32,1.89,1.89,0,0,0-.43-1.34,1.43,1.43,0,0,0-1.07-.46A1.44,1.44,0,0,0,128.89,68.23Z"/><path class="cls-2" d="M138.23,71l1.57-5.08h2.37l-2.57,7.25h-2.76l-2.57-7.25h2.36Z"/><path class="cls-2" d="M149.92,70h-5a1.66,1.66,0,0,0,.41,1.18,1.39,1.39,0,0,0,1,.35,1.32,1.32,0,0,0,.81-.24,1.17,1.17,0,0,0,.43-.64h2.36a3.13,3.13,0,0,1-.63,1.37,3.38,3.38,0,0,1-1.22,1,3.84,3.84,0,0,1-1.65.34,3.88,3.88,0,0,1-1.89-.44,3.25,3.25,0,0,1-1.3-1.3,4.49,4.49,0,0,1,0-4,3.24,3.24,0,0,1,1.29-1.28,4,4,0,0,1,1.9-.45,4,4,0,0,1,1.9.44,3.16,3.16,0,0,1,1.27,1.24,3.82,3.82,0,0,1,.44,1.84A3.38,3.38,0,0,1,149.92,70Zm-2.57-2a1.39,1.39,0,0,0-1-.36,1.44,1.44,0,0,0-1,.37A1.5,1.5,0,0,0,144.9,69h2.83A1.32,1.32,0,0,0,147.35,68Z"/><path class="cls-2" d="M162.65,66.69a3.23,3.23,0,0,1,.76,2.29v4.21H161.2v-4a1.45,1.45,0,0,0-.37-1.07,1.31,1.31,0,0,0-1-.38,1.32,1.32,0,0,0-1,.41,1.59,1.59,0,0,0-.39,1.15v3.84h-2.22v-4a1.49,1.49,0,0,0-.36-1.07,1.31,1.31,0,0,0-1-.38,1.39,1.39,0,0,0-1.06.4,1.6,1.6,0,0,0-.39,1.16v3.84h-2.22V65.94h2.22v1.23a2.26,2.26,0,0,1,.88-1,2.71,2.71,0,0,1,1.39-.35,2.81,2.81,0,0,1,1.46.38,2.47,2.47,0,0,1,1,1.1,2.89,2.89,0,0,1,1-1.08,2.8,2.8,0,0,1,1.45-.4A2.76,2.76,0,0,1,162.65,66.69Z"/><path class="cls-2" d="M171.72,70h-5a1.66,1.66,0,0,0,.41,1.18,1.41,1.41,0,0,0,1,.35,1.35,1.35,0,0,0,.82-.24,1.15,1.15,0,0,0,.42-.64h2.36A3.13,3.13,0,0,1,171,72a3.3,3.3,0,0,1-1.22,1,3.84,3.84,0,0,1-1.65.34,3.88,3.88,0,0,1-1.89-.44,3.17,3.17,0,0,1-1.29-1.3,3.91,3.91,0,0,1-.47-2,4,4,0,0,1,.46-2,3.24,3.24,0,0,1,1.29-1.28,4,4,0,0,1,1.9-.45,4,4,0,0,1,1.9.44,3.1,3.1,0,0,1,1.27,1.24,3.72,3.72,0,0,1,.45,1.84A3.46,3.46,0,0,1,171.72,70Zm-2.57-2a1.39,1.39,0,0,0-1-.36,1.46,1.46,0,0,0-1,.37A1.54,1.54,0,0,0,166.7,69h2.84A1.32,1.32,0,0,0,169.15,68Z"/><path class="cls-2" d="M179.53,66.69a3.4,3.4,0,0,1,.73,2.29v4.21H178v-4a1.61,1.61,0,0,0-.39-1.14,1.33,1.33,0,0,0-1-.41,1.4,1.4,0,0,0-1.07.43,1.78,1.78,0,0,0-.4,1.23v3.84h-2.22V65.94h2.22v1.33a2.38,2.38,0,0,1,.93-1,2.77,2.77,0,0,1,1.45-.38A2.53,2.53,0,0,1,179.53,66.69Z"/><path class="cls-2" d="M185.84,71.28v1.91h-1a2.91,2.91,0,0,1-2-.63,2.67,2.67,0,0,1-.71-2.08V67.81h-1V65.94h1V64.16h2.23v1.78h1.45v1.87h-1.45v2.71a.83.83,0,0,0,.17.59.82.82,0,0,0,.59.17Z"/><path class="cls-2" d="M195.38,71.52h-3.45l-.57,1.67H189l3.37-9.12H195l3.37,9.12H196Zm-.57-1.69-1.15-3.38-1.15,3.38Z"/><path class="cls-2" d="M206.39,65.94v7.25h-2.24V71.88a2.34,2.34,0,0,1-.93,1,2.7,2.7,0,0,1-1.43.37,2.52,2.52,0,0,1-2-.83,3.34,3.34,0,0,1-.74-2.29V65.94h2.21v3.94a1.6,1.6,0,0,0,.39,1.15,1.51,1.51,0,0,0,2.09,0,1.75,1.75,0,0,0,.39-1.22V65.94Z"/><path class="cls-2" d="M212,71.28v1.91h-1a2.87,2.87,0,0,1-2-.63,2.67,2.67,0,0,1-.71-2.08V67.81h-1V65.94h1V64.16h2.22v1.78H212v1.87h-1.46v2.71a.79.79,0,0,0,.18.59.8.8,0,0,0,.59.17Z"/><path class="cls-2" d="M218.6,66.3a3.26,3.26,0,0,1,1.34,1.29,4.23,4.23,0,0,1,0,4,3.23,3.23,0,0,1-1.34,1.3,4.45,4.45,0,0,1-3.86,0,3.19,3.19,0,0,1-1.35-1.3,4.23,4.23,0,0,1,0-4,3.23,3.23,0,0,1,1.35-1.29,4.36,4.36,0,0,1,3.86,0Zm-3,1.93a1.89,1.89,0,0,0-.43,1.34,1.83,1.83,0,0,0,.43,1.32,1.41,1.41,0,0,0,1.07.46,1.39,1.39,0,0,0,1.07-.46,1.87,1.87,0,0,0,.43-1.32,1.94,1.94,0,0,0-.43-1.34,1.43,1.43,0,0,0-1.07-.46A1.44,1.44,0,0,0,215.6,68.23Z"/><path class="cls-2" d="M233.09,66.69a3.24,3.24,0,0,1,.77,2.29v4.21h-2.21v-4a1.49,1.49,0,0,0-.37-1.07,1.32,1.32,0,0,0-1-.38,1.36,1.36,0,0,0-1.05.41,1.63,1.63,0,0,0-.38,1.15v3.84h-2.22v-4a1.45,1.45,0,0,0-.37-1.07,1.28,1.28,0,0,0-1-.38,1.39,1.39,0,0,0-1.05.4,1.6,1.6,0,0,0-.39,1.16v3.84h-2.22V65.94h2.22v1.23a2.2,2.2,0,0,1,.88-1,2.67,2.67,0,0,1,1.38-.35,2.82,2.82,0,0,1,1.47.38,2.45,2.45,0,0,1,1,1.1,2.91,2.91,0,0,1,1-1.08,2.77,2.77,0,0,1,1.45-.4A2.73,2.73,0,0,1,233.09,66.69Z"/><path class="cls-2" d="M239.53,66.23a2.3,2.3,0,0,1,.88,1V65.94h2.21v7.25h-2.21V71.88a2.32,2.32,0,0,1-.88,1,2.65,2.65,0,0,1-1.43.37,2.93,2.93,0,0,1-1.61-.44,3.12,3.12,0,0,1-1.12-1.3,5,5,0,0,1,0-4,3.19,3.19,0,0,1,1.12-1.28,2.94,2.94,0,0,1,1.61-.45A2.57,2.57,0,0,1,239.53,66.23Zm-1.87,2a1.82,1.82,0,0,0-.43,1.3,1.86,1.86,0,0,0,.43,1.3,1.64,1.64,0,0,0,2.3,0,2.07,2.07,0,0,0,0-2.58,1.53,1.53,0,0,0-1.15-.47A1.48,1.48,0,0,0,237.66,68.27Z"/><path class="cls-2" d="M248.26,71.28v1.91h-1a2.87,2.87,0,0,1-2-.63,2.67,2.67,0,0,1-.71-2.08V67.81h-1V65.94h1V64.16h2.22v1.78h1.46v1.87h-1.46v2.71a.79.79,0,0,0,.18.59.8.8,0,0,0,.59.17Z"/><path class="cls-2" d="M249.67,63.06a1.56,1.56,0,0,1,1.92,0,1.09,1.09,0,0,1,.36.84,1.06,1.06,0,0,1-.36.82,1.53,1.53,0,0,1-1.92,0,1,1,0,0,1-.37-.82A1.07,1.07,0,0,1,249.67,63.06Zm2.06,2.88v7.25h-2.22V65.94Z"/><path class="cls-2" d="M258.59,66.3a3.33,3.33,0,0,1,1.34,1.29,4.23,4.23,0,0,1,0,4,3.29,3.29,0,0,1-1.34,1.3,4.07,4.07,0,0,1-1.93.44,4.13,4.13,0,0,1-1.94-.44,3.23,3.23,0,0,1-1.34-1.3,4.23,4.23,0,0,1,0-4,3.26,3.26,0,0,1,1.34-1.29,4.14,4.14,0,0,1,1.94-.45A4.07,4.07,0,0,1,258.59,66.3Zm-3,1.93a1.9,1.9,0,0,0-.44,1.34,1.83,1.83,0,0,0,.44,1.32,1.41,1.41,0,0,0,1.07.46,1.39,1.39,0,0,0,1.07-.46,1.87,1.87,0,0,0,.43-1.32,1.94,1.94,0,0,0-.43-1.34,1.43,1.43,0,0,0-1.07-.46A1.44,1.44,0,0,0,255.59,68.23Z"/><path class="cls-2" d="M268.16,66.69a3.35,3.35,0,0,1,.73,2.29v4.21h-2.22v-4a1.65,1.65,0,0,0-.38-1.14,1.36,1.36,0,0,0-1-.41,1.42,1.42,0,0,0-1.08.43,1.78,1.78,0,0,0-.39,1.23v3.84h-2.23V65.94h2.23v1.33a2.32,2.32,0,0,1,.93-1,2.72,2.72,0,0,1,1.45-.38A2.52,2.52,0,0,1,268.16,66.69Z"/><path class="cls-2" d="M89,79.46a1.56,1.56,0,0,1,1.92,0,1.07,1.07,0,0,1,.37.84,1,1,0,0,1-.37.82,1.53,1.53,0,0,1-1.92,0,1.06,1.06,0,0,1-.36-.82A1.09,1.09,0,0,1,89,79.46ZM91,82.34v7.25H88.79V82.34Z"/><path class="cls-2" d="M99.13,83.09a3.35,3.35,0,0,1,.74,2.29v4.21H97.65v-4a1.61,1.61,0,0,0-.39-1.14,1.33,1.33,0,0,0-1-.41,1.4,1.4,0,0,0-1.07.43,1.78,1.78,0,0,0-.4,1.23v3.84H92.55V82.34h2.22v1.33a2.38,2.38,0,0,1,.93-1,2.75,2.75,0,0,1,1.45-.38A2.52,2.52,0,0,1,99.13,83.09Z"/><path class="cls-2" d="M111,81.24a4.15,4.15,0,0,1,1.49,2.49h-2.35a2.14,2.14,0,0,0-.8-1,2.26,2.26,0,0,0-1.28-.36,2,2,0,0,0-1.58.71,3.39,3.39,0,0,0,0,3.82,2,2,0,0,0,1.58.71,2.27,2.27,0,0,0,1.28-.37,2.12,2.12,0,0,0,.8-1h2.35A4.21,4.21,0,0,1,111,88.74a4.44,4.44,0,0,1-2.9.93,4.55,4.55,0,0,1-2.36-.59,4,4,0,0,1-1.56-1.66,5.64,5.64,0,0,1,0-4.86,4.09,4.09,0,0,1,1.56-1.66,4.64,4.64,0,0,1,2.36-.59A4.44,4.44,0,0,1,111,81.24Z"/><path class="cls-2" d="M119.1,82.7A3.26,3.26,0,0,1,120.44,84a4.23,4.23,0,0,1,0,4,3.23,3.23,0,0,1-1.34,1.3,4.07,4.07,0,0,1-1.93.44,4.13,4.13,0,0,1-1.94-.44,3.23,3.23,0,0,1-1.34-1.3,4.23,4.23,0,0,1,0-4,3.26,3.26,0,0,1,1.34-1.29,4.14,4.14,0,0,1,1.94-.45A4.07,4.07,0,0,1,119.1,82.7Zm-3,1.93a1.9,1.9,0,0,0-.44,1.34,1.83,1.83,0,0,0,.44,1.32,1.41,1.41,0,0,0,1.07.46,1.39,1.39,0,0,0,1.07-.46,1.87,1.87,0,0,0,.43-1.32,1.94,1.94,0,0,0-.43-1.34,1.43,1.43,0,0,0-1.07-.46A1.44,1.44,0,0,0,116.1,84.63Z"/><path class="cls-2" d="M128.67,83.09a3.35,3.35,0,0,1,.73,2.29v4.21h-2.22v-4a1.65,1.65,0,0,0-.38-1.14,1.36,1.36,0,0,0-1-.41,1.4,1.4,0,0,0-1.07.43,1.74,1.74,0,0,0-.4,1.23v3.84h-2.22V82.34h2.22v1.33a2.38,2.38,0,0,1,.93-1,2.72,2.72,0,0,1,1.45-.38A2.52,2.52,0,0,1,128.67,83.09Z"/><path class="cls-2" d="M135.72,82.94a3,3,0,0,1,1,1.82h-2.08a1.16,1.16,0,0,0-.41-.7,1.23,1.23,0,0,0-.8-.25.86.86,0,0,0-.57.16.57.57,0,0,0-.2.46.54.54,0,0,0,.36.51,6.35,6.35,0,0,0,1.13.34,12.63,12.63,0,0,1,1.36.39,2.3,2.3,0,0,1,.92.66,1.81,1.81,0,0,1,.39,1.22,1.91,1.91,0,0,1-.33,1.11,2.28,2.28,0,0,1-1,.75,4.49,4.49,0,0,1-3.86-.38,2.73,2.73,0,0,1-1.08-1.85h2.15a.93.93,0,0,0,.39.71,1.46,1.46,0,0,0,.89.25.81.81,0,0,0,.57-.18.58.58,0,0,0,.2-.46.56.56,0,0,0-.36-.54,6.32,6.32,0,0,0-1.16-.34,10.4,10.4,0,0,1-1.33-.37,2.2,2.2,0,0,1-.89-.63,1.7,1.7,0,0,1-.38-1.19,2,2,0,0,1,.74-1.58,3.23,3.23,0,0,1,2.09-.6A3.34,3.34,0,0,1,135.72,82.94Z"/><path class="cls-2" d="M145.3,82.34v7.25h-2.23V88.28a2.47,2.47,0,0,1-.93,1,2.71,2.71,0,0,1-1.44.37,2.49,2.49,0,0,1-2-.83,3.34,3.34,0,0,1-.74-2.29V82.34h2.21v3.94a1.6,1.6,0,0,0,.39,1.15,1.35,1.35,0,0,0,1,.41,1.37,1.37,0,0,0,1.07-.43,1.75,1.75,0,0,0,.39-1.22V82.34Z"/><path class="cls-2" d="M158.34,83.09a3.24,3.24,0,0,1,.77,2.29v4.21H156.9v-4a1.45,1.45,0,0,0-.37-1.07,1.32,1.32,0,0,0-1-.38,1.36,1.36,0,0,0-1.05.41,1.63,1.63,0,0,0-.38,1.15v3.84h-2.22v-4a1.45,1.45,0,0,0-.37-1.07,1.28,1.28,0,0,0-1-.38,1.39,1.39,0,0,0-1.05.4,1.6,1.6,0,0,0-.39,1.16v3.84h-2.22V82.34h2.22v1.23a2.2,2.2,0,0,1,.88-1,2.67,2.67,0,0,1,1.38-.35,2.74,2.74,0,0,1,1.47.39,2.32,2.32,0,0,1,1,1.09,3,3,0,0,1,1-1.08,2.77,2.77,0,0,1,1.45-.4A2.73,2.73,0,0,1,158.34,83.09Z"/><path class="cls-2" d="M167.42,86.37h-5a1.71,1.71,0,0,0,.42,1.18,1.37,1.37,0,0,0,1,.35,1.33,1.33,0,0,0,.82-.24A1.17,1.17,0,0,0,165,87h2.35a3,3,0,0,1-.62,1.37,3.38,3.38,0,0,1-1.22,1,4.23,4.23,0,0,1-3.54-.1,3.13,3.13,0,0,1-1.3-1.3,4,4,0,0,1-.47-2,4,4,0,0,1,.47-2A3.09,3.09,0,0,1,162,82.7a3.92,3.92,0,0,1,1.9-.45,4,4,0,0,1,1.9.44A3.2,3.2,0,0,1,167,83.93a3.72,3.72,0,0,1,.45,1.84A3.38,3.38,0,0,1,167.42,86.37Zm-2.57-2a1.41,1.41,0,0,0-1-.36,1.49,1.49,0,0,0-1,.37,1.53,1.53,0,0,0-.45,1.06h2.83A1.35,1.35,0,0,0,164.85,84.36Z"/><path class="cls-2" d="M171.93,82.65a2.77,2.77,0,0,1,1.43-.39v2.38h-.64a2.19,2.19,0,0,0-1.37.38,1.49,1.49,0,0,0-.49,1.27v3.3h-2.22V82.34h2.22V83.7A3.25,3.25,0,0,1,171.93,82.65Z"/><path class="cls-2" d="M184,81.16a3.55,3.55,0,0,1,1.39,2.29h-2.35a1.81,1.81,0,0,0-.71-.79,2.42,2.42,0,0,0-2.85.41,2.77,2.77,0,0,0-.64,1.92,2.84,2.84,0,0,0,.67,2,2.51,2.51,0,0,0,1.91.7,2.32,2.32,0,0,0,1.39-.44,2.27,2.27,0,0,0,.84-1.24h-2.81v-1.6h4.67v2.2a4.31,4.31,0,0,1-.83,1.49,4.22,4.22,0,0,1-1.46,1.12,4.63,4.63,0,0,1-2,.43,4.78,4.78,0,0,1-2.43-.59,4,4,0,0,1-1.6-1.66,5.46,5.46,0,0,1,0-4.86,4.1,4.1,0,0,1,1.59-1.66,4.85,4.85,0,0,1,2.42-.59A4.52,4.52,0,0,1,184,81.16Z"/><path class="cls-2" d="M192.12,82.7A3.26,3.26,0,0,1,193.46,84a4.23,4.23,0,0,1,0,4,3.23,3.23,0,0,1-1.34,1.3,4.45,4.45,0,0,1-3.86,0,3.19,3.19,0,0,1-1.35-1.3,4.23,4.23,0,0,1,0-4,3.23,3.23,0,0,1,1.35-1.29,4.36,4.36,0,0,1,3.86,0Zm-3,1.93a1.9,1.9,0,0,0-.44,1.34,1.83,1.83,0,0,0,.44,1.32,1.41,1.41,0,0,0,1.07.46,1.39,1.39,0,0,0,1.07-.46,1.87,1.87,0,0,0,.43-1.32,1.94,1.94,0,0,0-.43-1.34,1.43,1.43,0,0,0-1.07-.46A1.44,1.44,0,0,0,189.12,84.63Z"/><path class="cls-2" d="M200.43,82.7A3.33,3.33,0,0,1,201.77,84a4.23,4.23,0,0,1,0,4,3.29,3.29,0,0,1-1.34,1.3,4.47,4.47,0,0,1-3.87,0,3.23,3.23,0,0,1-1.34-1.3,4.23,4.23,0,0,1,0-4,3.26,3.26,0,0,1,1.34-1.29,4.39,4.39,0,0,1,3.87,0Zm-3,1.93A1.9,1.9,0,0,0,197,86a1.83,1.83,0,0,0,.44,1.32,1.39,1.39,0,0,0,1.07.46,1.37,1.37,0,0,0,1.06-.46A1.83,1.83,0,0,0,200,86a1.89,1.89,0,0,0-.43-1.34,1.41,1.41,0,0,0-1.06-.46A1.43,1.43,0,0,0,197.43,84.63Z"/><path class="cls-2" d="M207.6,82.63a2.16,2.16,0,0,1,.87,1V80h2.22v9.62h-2.22V88.28a2.19,2.19,0,0,1-.87,1,2.65,2.65,0,0,1-1.43.37,3,3,0,0,1-1.61-.44,3,3,0,0,1-1.11-1.3,5,5,0,0,1,0-4,3.06,3.06,0,0,1,1.11-1.29,3,3,0,0,1,1.61-.45A2.57,2.57,0,0,1,207.6,82.63Zm-1.87,2a1.82,1.82,0,0,0-.43,1.3,1.86,1.86,0,0,0,.43,1.3,1.51,1.51,0,0,0,1.15.47,1.53,1.53,0,0,0,1.16-.49,2.11,2.11,0,0,0,0-2.58,1.55,1.55,0,0,0-1.16-.47A1.51,1.51,0,0,0,205.73,84.67Z"/><path class="cls-2" d="M217.07,82.94a3,3,0,0,1,1,1.82H216a1.11,1.11,0,0,0-.41-.7,1.23,1.23,0,0,0-.8-.25.86.86,0,0,0-.57.16.56.56,0,0,0-.19.46.54.54,0,0,0,.35.51,6.63,6.63,0,0,0,1.13.34,12,12,0,0,1,1.36.39,2.34,2.34,0,0,1,.93.66,1.81,1.81,0,0,1,.39,1.22,1.92,1.92,0,0,1-.34,1.11,2.22,2.22,0,0,1-1,.75,3.79,3.79,0,0,1-1.5.27A3.86,3.86,0,0,1,213,89,2.73,2.73,0,0,1,212,87.18h2.15a.94.94,0,0,0,.4.71,1.42,1.42,0,0,0,.89.25A.81.81,0,0,0,216,88a.58.58,0,0,0,.19-.46.56.56,0,0,0-.35-.54,6.48,6.48,0,0,0-1.17-.34,9.75,9.75,0,0,1-1.32-.37,2.17,2.17,0,0,1-.9-.63,1.75,1.75,0,0,1-.38-1.19,2,2,0,0,1,.74-1.58,3.26,3.26,0,0,1,2.1-.6A3.33,3.33,0,0,1,217.07,82.94Z"/><path class="cls-2" d="M228,80.4v1.77h-3.77v2h2.92v1.69h-2.92v3.71H222V80.4Z"/><path class="cls-2" d="M233.37,82.63a2.3,2.3,0,0,1,.88,1V82.34h2.21v7.25h-2.21V88.28a2.32,2.32,0,0,1-.88,1,2.65,2.65,0,0,1-1.43.37,2.93,2.93,0,0,1-1.61-.44,3.05,3.05,0,0,1-1.12-1.3,4.5,4.5,0,0,1-.41-2,4.45,4.45,0,0,1,.41-2,3.08,3.08,0,0,1,1.12-1.29,2.94,2.94,0,0,1,1.61-.45A2.57,2.57,0,0,1,233.37,82.63Zm-1.87,2a1.83,1.83,0,0,0-.44,1.3,1.86,1.86,0,0,0,.44,1.3,1.62,1.62,0,0,0,2.3,0,2.07,2.07,0,0,0,0-2.58,1.53,1.53,0,0,0-1.15-.47A1.5,1.5,0,0,0,231.5,84.67Z"/><path class="cls-2" d="M243.62,83a3.5,3.5,0,0,1,1.2,2.13h-2.36a1.22,1.22,0,0,0-.42-.73,1.3,1.3,0,0,0-.82-.26,1.17,1.17,0,0,0-1,.46,2.05,2.05,0,0,0-.38,1.35,2,2,0,0,0,.38,1.34,1.17,1.17,0,0,0,1,.46,1.24,1.24,0,0,0,.82-.26,1.19,1.19,0,0,0,.42-.72h2.36a3.45,3.45,0,0,1-1.2,2.12,3.57,3.57,0,0,1-2.35.77,3.88,3.88,0,0,1-1.89-.44,3.25,3.25,0,0,1-1.3-1.3,4,4,0,0,1-.46-2,4,4,0,0,1,.46-2,3.14,3.14,0,0,1,1.29-1.29,3.92,3.92,0,0,1,1.9-.45A3.63,3.63,0,0,1,243.62,83Z"/><path class="cls-2" d="M250.08,87.68v1.91h-1a2.87,2.87,0,0,1-2-.63,2.67,2.67,0,0,1-.71-2.08V84.21h-1V82.34h1V80.56h2.22v1.78h1.46v1.87h-1.46v2.71a.79.79,0,0,0,.18.59.8.8,0,0,0,.59.17Z"/><path class="cls-2" d="M256.65,82.7A3.26,3.26,0,0,1,258,84a4.23,4.23,0,0,1,0,4,3.23,3.23,0,0,1-1.34,1.3,4.45,4.45,0,0,1-3.86,0,3.25,3.25,0,0,1-1.35-1.3,4.23,4.23,0,0,1,0-4,3.29,3.29,0,0,1,1.35-1.29,4.36,4.36,0,0,1,3.86,0Zm-3,1.93a1.89,1.89,0,0,0-.43,1.34,1.83,1.83,0,0,0,.43,1.32,1.41,1.41,0,0,0,1.07.46,1.39,1.39,0,0,0,1.07-.46,1.83,1.83,0,0,0,.43-1.32,1.89,1.89,0,0,0-.43-1.34,1.43,1.43,0,0,0-1.07-.46A1.44,1.44,0,0,0,253.65,84.63Z"/><path class="cls-2" d="M262.93,82.65a2.74,2.74,0,0,1,1.43-.39v2.38h-.64a2.19,2.19,0,0,0-1.37.38,1.49,1.49,0,0,0-.49,1.27v3.3h-2.22V82.34h2.22V83.7A3.25,3.25,0,0,1,262.93,82.65Z"/><path class="cls-2" d="M267,82.34l1.74,4.45,1.63-4.45h2.45l-4.52,10.71h-2.44l1.7-3.73-3-7Z"/><text class="cls-3" transform="translate(350.17 117.4)">We have deployed MAG300 AMRs <tspan x="-16.15" y="16.4">across various industrial environments, </tspan><tspan x="-11.23" y="32.8">but Cleanroom Class 100,000 is a new </tspan><tspan x="-17.05" y="49.2">one. An automation solution for moving </tspan><tspan x="-5.95" y="65.6">FG to and from testing machines to </tspan><tspan x="-16.45" y="82">maintain a continuous, regular process </tspan><tspan x="41.21" y="98.4">fow across 24 hrs. </tspan></text><text class="cls-4" transform="translate(345.89 73.19)">FG Movement Automation in <tspan x="15.94" y="16.4">Microeletronics Factory</tspan></text><path class="cls-2" d="M447.14,48.32l-.34-.11a3,3,0,0,1-.56-5.53l.34-.16V40.46h-5v-5h-3c0,.14,0,.28,0,.43,0,1.5,0,3,0,4.49a.61.61,0,0,0,.35.6,2.83,2.83,0,0,1,1.28,3.32,2.88,2.88,0,0,1-2.92,2,2.89,2.89,0,0,1-1.11-5.48c.21-.1.39-.17.38-.48,0-1.56,0-3.11,0-4.67,0-.07,0-.15,0-.25h-3v9h-2v-9l-1-.05v-5h-6l-.14.35a3,3,0,1,1-.39-2.72.7.7,0,0,0,.64.32h5.88v-2H420.29v-2h10.06v-3H418.27v-2h12.1v-4h2c0-.2,0-.36,0-.52,0-2.37,0-4.74,0-7.1a.65.65,0,0,0-.37-.65,2.91,2.91,0,0,1-1.28-3.41,3,3,0,0,1,5.71.33A2.91,2.91,0,0,1,434.84,7a.6.6,0,0,0-.41.69c0,.42,0,.85,0,1.33h5.07v6.06h3V7.94a2.9,2.9,0,1,1,4-3.18A2.86,2.86,0,0,1,445,7.87a.64.64,0,0,0-.44.71c0,2,0,4,0,6v.53h3V5h2V15.13h1v2h10.13v2H450.67v3H458a4.91,4.91,0,0,1,.15-.51,3,3,0,1,1,4.23,3.56,2.88,2.88,0,0,1-3.52-.55,1.32,1.32,0,0,0-1.1-.46c-2.19,0-4.37,0-6.56,0h-.52v3H463.8v2H450.67v2h8.06v2h-8.08v2h-2c0,.18,0,.31,0,.45,0,2.12,0,4.24,0,6.37a.51.51,0,0,0,.28.54,2.91,2.91,0,0,1,1.54,3.11,3,3,0,0,1-2.35,2.39.9.9,0,0,0-.21.08Zm1.45-31.13H432.43V33.35h16.16Zm-11.14-2.06v-4h-3v4Zm9.13,20.29h-3v3h3Zm15.31-12.81a1,1,0,1,0-1,.94A1,1,0,0,0,461.89,22.61ZM432.65,4.37a.94.94,0,1,0,1-.94A1,1,0,0,0,432.65,4.37ZM422.29,29.68a.83.83,0,0,0-.88-.93.95.95,0,1,0,0,1.89C422,30.63,422.29,30.28,422.29,29.68Zm26.15,15.66a.94.94,0,1,0-.95.95A.94.94,0,0,0,448.44,45.34Zm-10.21-1.93a.88.88,0,0,0-.89-.86.87.87,0,0,0,0,1.73A.88.88,0,0,0,438.23,43.41Zm6.36-38.13a.86.86,0,0,0-.89-.85.9.9,0,0,0-.84.86.88.88,0,0,0,.88.87A.86.86,0,0,0,444.59,5.28Z"/><path class="cls-2" d="M435.48,30.3V20.22h10.07V30.3Zm8.06-8h-6v6h6Z"/><line class="cls-5" x1="311.58" y1="60.11" x2="311.58" y2="216.22"/><path class="cls-2" d="M147.72,6.94c.14-.52.24-1.05.41-1.55A7.8,7.8,0,0,1,155.74,0c9.34,0,18.68,0,28,0a1.91,1.91,0,0,1,.59.07A.81.81,0,0,1,185,1a.78.78,0,0,1-.66.81,4.63,4.63,0,0,1-.83.05H160.57a7.87,7.87,0,0,1,2.81,6,7.78,7.78,0,0,1-2.76,6c.21,0,.35.05.49.05h31A6,6,0,1,0,192,1.83c-1.22,0-2.44,0-3.66,0-.48,0-.88-.14-1-.65s.12-1.06.59-1.07c2.84-.06,5.73-.53,8.36,1.09a7.83,7.83,0,0,1,0,13.29l-.45.3a8,8,0,0,1,1.18,13.14A23.86,23.86,0,0,1,204,33.56c.38.44.74.9,1.08,1.37a.9.9,0,1,1-1.41,1.1,28.12,28.12,0,0,0-2.33-2.65,41.11,41.11,0,0,0-4.07-3.25,3.5,3.5,0,0,0-1.85-.53c-9.1,0-18.2,0-27.31,0-.13,0-.26,0-.54.05,6.2,4.11,10.47,9.33,11,17h28.84c-.24-1.39-.41-2.73-.72-4-.24-1-.67-1.92-1-2.89a1.42,1.42,0,0,1,0-.91,1,1,0,0,1,.73-.47,1.32,1.32,0,0,1,.87.56,19.34,19.34,0,0,1,1.74,6.51c.06.65.09,1.32.11,2a.93.93,0,0,1-1,1.09,4.87,4.87,0,0,1-.54,0H178.36c-1.36,0-1.51-.19-1.59-1.56-.06-1-.24-1.94-.35-2.92,0-.4-.22-.51-.61-.51-1.8,0-3.6,0-5.4,0a3.21,3.21,0,0,1-.54,0,.83.83,0,0,1-.8-.82.81.81,0,0,1,.75-.93,8,8,0,0,1,1.2,0h4.77c-.39-.81-.7-1.55-1.09-2.26A21.91,21.91,0,0,0,167.84,32c-1-.71-2.1-1.31-3.16-2a3.22,3.22,0,0,0-2-.51c-.64.05-1.29,0-2.11,0a7.88,7.88,0,0,1,0,12.06h5.08c.67,0,1,.34,1.06.88s-.38.91-1.09.92c-3.38,0-6.76,0-10.14,0a7.8,7.8,0,0,1-7.65-6.58,1,1,0,0,0-.11-.26v-1.8a4.77,4.77,0,0,0,.13-.51,7.57,7.57,0,0,1,2.21-4.22c.54-.52,1.16-.94,1.63-1.32-.82-.8-1.69-1.56-2.44-2.42a7.93,7.93,0,0,1-1.53-3.78V20.86a1.93,1.93,0,0,0,.11-.34A7.75,7.75,0,0,1,151.58,15l.3-.23A8.26,8.26,0,0,1,149,12.13a9.82,9.82,0,0,1-1.28-3.39Zm12.9,20.84H169c7.62,0,15.24,0,22.86,0a6.11,6.11,0,0,0,6.3-5.12,6,6,0,0,0-6.1-7h-30.9c-.14,0-.29,0-.49,0A8,8,0,0,1,160.62,27.78ZM155.55,1.84a6.08,6.08,0,0,0-6,6.05,6,6,0,0,0,12.06,0A6.09,6.09,0,0,0,155.55,1.84Zm6,20a6,6,0,1,0-6.12,5.95A6.08,6.08,0,0,0,161.58,21.82Zm-6,7.77a6,6,0,1,0,6,6A6.06,6.06,0,0,0,155.56,29.59Z"/><path class="cls-2" d="M160.35,7.87a4.8,4.8,0,1,1-4.81-4.79A4.83,4.83,0,0,1,160.35,7.87Zm-1.8,0a3,3,0,0,0-6,0,3.05,3.05,0,0,0,3,3A3,3,0,0,0,158.55,7.86Z"/><path class="cls-2" d="M160.35,21.76a4.8,4.8,0,0,1-9.6,0,4.8,4.8,0,1,1,9.6,0Zm-1.81,0a3,3,0,0,0-3-3,3.06,3.06,0,0,0-3,3,3,3,0,0,0,3,3A3,3,0,0,0,158.54,21.72Z"/><path class="cls-2" d="M160.35,35.58a4.8,4.8,0,1,1-4.84-4.76A4.84,4.84,0,0,1,160.35,35.58Zm-4.78-3a3,3,0,0,0-3,3,3.05,3.05,0,0,0,3,3,3,3,0,0,0,3-3A3,3,0,0,0,155.57,32.62Z"/></g></g></svg>